<?xml version="1.0" encoding="UTF-8" standalone="no"?>
<!DOCTYPE svg PUBLIC "-//W3C//DTD SVG 1.1//EN" "http://www.w3.org/Graphics/SVG/1.1/DTD/svg11.dtd">
<svg xmlns="http://www.w3.org/2000/svg" version="1.1" viewBox="0 0 784 784">
<path fill="#fcfcf9" fill-opacity="0.996" d="
  M 390.25 109.79
  Q 390.27 110.50 389.25 110.46
  Q 363.70 111.67 352.06 113.31
  Q 336.47 115.52 314.80 121.35
  Q 307.05 123.43 299.10 126.56
  Q 291.38 129.59 283.71 132.75
  Q 263.13 141.21 244.31 153.06
  Q 237.88 157.11 233.72 160.16
  Q 228.26 164.17 228.19 164.22
  Q 208.40 178.27 191.01 195.12
  Q 181.91 203.94 176.94 209.34
  Q 166.11 221.12 157.70 234.99
  Q 157.30 235.65 158.06 235.52
  Q 169.87 233.54 180.87 231.94
  Q 185.37 231.29 190.66 231.06
  Q 195.64 230.83 200.49 230.52
  A 3.90 3.90 -69.7 0 0 203.01 229.36
  Q 216.54 215.63 231.38 203.43
  Q 239.32 196.90 247.37 191.45
  Q 274.92 172.77 305.89 160.53
  Q 315.63 156.68 324.79 154.00
  Q 347.42 147.38 371.00 145.26
  Q 405.75 142.13 440.25 147.25
  Q 482.78 153.57 523.65 174.98
  Q 530.43 178.54 530.99 178.86
  Q 533.87 180.50 538.06 183.19
  Q 558.97 196.58 571.77 206.48
  Q 580.19 213.00 587.85 220.40
  Q 593.94 226.29 596.31 227.94
  Q 598.43 229.40 601.00 229.71
  Q 621.25 232.15 641.52 234.50
  A 1.10 1.10 -3.8 0 0 642.72 233.13
  Q 642.17 230.99 640.77 229.24
  Q 639.52 227.67 639.44 227.57
  Q 632.80 218.37 622.56 207.69
  Q 600.50 184.66 576.83 167.92
  Q 553.61 151.50 534.56 141.94
  Q 502.25 125.72 463.38 117.36
  Q 462.29 117.13 455.14 115.52
  Q 450.61 114.50 446.81 113.94
  Q 424.00 110.58 399.75 110.46
  Q 399.83 109.95 400.75 110.00
  Q 405.52 110.27 414.50 109.79
  Q 428.55 110.50 442.53 112.09
  Q 442.91 112.13 449.48 112.37
  Q 453.96 112.54 458.07 114.41
  Q 459.55 115.08 461.63 115.38
  Q 462.90 115.56 464.10 116.00
  Q 465.53 116.54 466.49 116.65
  Q 469.34 116.99 472.19 117.26
  A 1.65 1.39 64.9 0 1 473.05 117.66
  Q 474.53 119.00 475.82 118.71
  A 3.88 3.85 -37.2 0 1 478.50 119.07
  Q 482.54 121.22 485.19 120.68
  Q 488.29 120.04 490.19 122.56
  Q 490.50 122.98 492.94 124.06
  Q 495.62 125.25 498.45 126.02
  Q 504.13 127.56 509.50 130.00
  Q 510.51 130.46 514.75 130.72
  A 1.94 1.74 61.1 0 1 515.67 131.04
  Q 521.07 134.71 527.52 135.86
  Q 530.54 136.40 534.83 139.82
  Q 535.48 140.34 536.21 140.73
  Q 546.67 146.32 556.79 152.43
  Q 558.49 153.45 559.99 154.73
  Q 561.89 156.34 563.11 157.11
  Q 582.89 169.61 603.44 185.56
  Q 604.46 186.36 604.02 187.32
  A 0.61 0.52 -60.9 0 0 604.16 188.04
  Q 605.07 188.66 605.99 189.23
  Q 606.77 189.72 607.59 190.70
  Q 608.59 191.89 610.50 193.50
  Q 618.57 200.28 628.91 211.39
  A 0.76 0.66 -30.9 0 0 629.70 211.53
  Q 630.76 211.13 630.96 212.16
  Q 631.12 213.03 631.24 213.29
  Q 633.01 217.22 635.86 220.44
  A 1.81 0.82 5.4 0 0 636.68 220.91
  Q 637.88 221.28 638.50 223.00
  Q 640.08 227.41 643.50 229.00
  Q 645.74 230.04 645.66 231.78
  Q 645.62 232.87 644.15 234.31
  Q 643.11 235.33 642.10 236.38
  A 0.66 0.65 35.5 0 1 641.32 236.51
  Q 639.24 235.39 636.99 235.59
  Q 633.40 235.89 632.96 235.82
  Q 631.02 235.52 629.20 234.71
  A 1.23 1.18 -41.7 0 0 628.29 234.68
  Q 625.26 235.74 622.53 234.00
  Q 620.79 232.89 618.76 232.87
  Q 615.84 232.84 615.73 232.83
  Q 612.40 232.51 609.05 232.55
  A 1.00 0.88 -71.2 0 0 608.30 232.98
  Q 607.03 234.83 605.44 233.06
  Q 603.50 230.91 601.20 230.91
  Q 599.36 230.91 599.30 230.91
  Q 598.05 230.82 596.80 230.90
  A 0.90 0.87 69.8 0 1 596.03 230.53
  Q 595.00 229.06 594.44 228.81
  Q 592.50 227.95 591.32 226.19
  Q 590.58 225.08 589.39 224.51
  A 1.99 1.65 1.0 0 1 588.67 223.89
  Q 587.06 221.43 584.29 220.36
  A 2.02 1.72 -4.7 0 1 583.51 219.80
  Q 580.53 216.03 575.69 212.31
  Q 573.40 210.56 571.09 207.73
  Q 569.61 205.91 567.88 204.88
  Q 565.99 203.76 564.11 202.65
  Q 562.74 201.84 560.32 199.83
  Q 558.49 198.29 556.34 197.19
  Q 556.25 197.14 554.41 195.96
  Q 552.66 194.84 550.46 195.50
  L 549.75 195.46
  Q 547.54 195.05 548.67 193.62
  A 0.54 0.51 -49.3 0 0 548.64 192.91
  Q 546.98 191.33 545.27 189.81
  Q 545.19 189.75 543.98 188.47
  Q 542.52 186.95 540.32 186.92
  A 1.24 1.14 -20.3 0 1 539.46 186.57
  Q 535.96 183.07 531.42 181.09
  Q 529.61 180.31 527.91 179.30
  Q 526.71 178.59 524.36 177.69
  Q 522.05 176.81 519.19 174.81
  Q 515.00 171.90 508.25 169.75
  Q 506.47 169.18 504.35 167.63
  Q 502.52 166.29 500.62 165.81
  Q 495.20 164.44 489.99 162.43
  Q 487.56 161.50 484.50 162.50
  Q 483.23 162.91 482.31 161.90
  A 0.62 0.54 -46.5 0 1 482.34 161.14
  Q 483.46 159.79 482.06 158.69
  Q 480.05 157.09 477.21 156.92
  Q 473.84 156.73 472.87 156.46
  Q 471.45 156.06 470.06 155.57
  Q 468.78 155.12 467.22 155.06
  Q 463.40 154.92 458.44 153.31
  Q 453.32 151.66 451.64 151.00
  Q 451.20 150.83 450.69 150.88
  Q 449.12 151.04 448.33 150.37
  A 4.64 4.61 -21.3 0 0 445.94 149.33
  Q 440.60 148.67 436.31 148.13
  Q 430.98 147.44 426.66 147.15
  Q 404.04 145.63 381.38 146.00
  Q 370.92 146.17 361.73 147.76
  Q 351.27 149.57 340.96 152.19
  Q 339.71 152.51 336.08 152.78
  Q 333.68 152.96 331.19 153.94
  Q 326.47 155.79 320.44 156.69
  Q 318.53 156.97 314.86 158.98
  Q 312.12 160.49 309.35 161.32
  Q 300.97 163.83 293.22 167.85
  Q 290.49 169.27 286.01 171.05
  Q 282.32 172.51 278.93 174.60
  Q 278.72 174.73 276.84 176.20
  Q 275.79 177.03 274.50 177.50
  A 3.57 0.85 -70.8 0 0 272.94 179.94
  Q 272.46 181.13 271.32 181.38
  A 0.35 0.33 -88.5 0 1 270.94 180.95
  Q 271.39 178.77 269.25 179.95
  Q 263.97 182.86 258.95 186.23
  Q 258.10 186.80 255.25 188.32
  Q 253.43 189.29 251.71 190.74
  Q 250.88 191.44 249.94 191.98
  Q 242.37 196.33 237.06 200.96
  Q 235.64 202.20 233.82 203.32
  Q 231.32 204.86 230.69 205.94
  Q 229.27 208.36 226.93 209.92
  Q 218.82 215.32 214.75 221.00
  Q 212.94 223.53 211.18 224.85
  Q 208.99 226.49 208.27 227.20
  Q 206.83 228.62 205.31 229.56
  Q 203.76 230.52 203.16 232.03
  A 0.78 0.75 -80.7 0 1 202.50 232.52
  Q 199.88 232.67 197.68 233.98
  A 1.41 1.38 -56.0 0 1 196.76 234.17
  L 192.93 233.62
  A 1.13 0.93 74.2 0 1 192.20 233.11
  Q 191.51 232.02 190.25 232.25
  Q 172.48 235.50 157.99 236.95
  A 1.33 1.07 55.9 0 1 157.12 236.68
  L 154.67 234.79
  A 0.34 0.33 46.6 0 1 154.68 234.24
  Q 155.84 233.47 156.53 232.27
  Q 157.70 230.22 157.85 230.01
  Q 165.42 220.00 173.19 210.14
  A 2.01 1.56 2.6 0 1 173.97 209.59
  Q 176.27 208.73 176.74 206.30
  A 1.14 1.04 -11.8 0 1 177.26 205.58
  Q 178.48 204.85 178.92 203.43
  Q 179.69 200.92 182.25 201.18
  A 1.77 1.01 21.0 0 0 183.21 201.03
  Q 184.59 200.23 184.59 198.56
  Q 184.59 198.07 184.81 197.64
  Q 185.25 196.74 185.27 195.74
  A 1.41 0.82 34.3 0 0 184.87 194.91
  Q 183.82 193.80 185.12 192.63
  Q 186.11 191.74 185.50 193.45
  A 0.79 0.79 17.7 0 0 186.03 194.47
  Q 192.59 196.30 192.29 190.50
  A 0.57 0.57 82.4 0 1 192.74 189.91
  Q 195.11 189.44 196.75 187.89
  Q 199.62 185.19 199.73 185.10
  Q 204.30 181.66 208.10 177.36
  Q 210.61 174.52 212.81 173.31
  Q 215.58 171.79 217.02 169.96
  Q 217.33 169.56 217.77 169.37
  L 221.00 168.00
  Q 224.20 166.64 222.94 165.06
  Q 218.57 159.62 224.23 163.24
  A 2.30 2.28 -47.1 0 0 226.85 163.13
  Q 231.76 159.42 237.87 153.02
  A 0.80 0.80 43.1 0 1 239.00 152.99
  Q 240.65 154.55 242.56 153.02
  A 0.88 0.74 66.5 0 0 242.80 152.21
  Q 242.39 150.38 244.76 150.53
  Q 248.10 150.74 250.43 147.56
  A 1.48 1.47 -43.8 0 0 250.47 145.86
  Q 249.08 143.79 250.65 144.56
  Q 250.90 144.69 251.30 145.02
  Q 253.66 146.98 255.95 144.69
  Q 259.03 141.60 260.75 141.25
  Q 263.69 140.66 265.88 138.63
  Q 267.89 136.77 270.68 136.71
  Q 272.51 136.67 273.12 135.30
  A 1.46 1.45 -81.8 0 1 274.25 134.45
  Q 278.14 133.93 280.29 132.82
  Q 282.07 131.90 281.24 130.18
  Q 281.05 129.79 281.43 129.99
  Q 284.48 131.60 287.67 130.40
  Q 288.27 130.17 288.53 129.73
  Q 289.10 128.72 287.36 128.69
  Q 286.61 128.68 287.29 128.35
  Q 289.54 127.25 294.34 127.26
  Q 294.52 127.26 294.70 127.18
  L 302.20 124.06
  Q 302.87 123.78 303.36 123.35
  Q 305.66 121.36 307.43 121.19
  Q 308.62 121.07 308.68 121.06
  Q 329.04 116.87 349.37 112.52
  Q 349.44 112.51 352.37 111.48
  Q 353.45 111.10 354.62 111.13
  Q 356.44 111.18 356.87 111.14
  Q 361.25 110.72 365.63 110.69
  Q 370.11 110.65 374.35 110.23
  Q 382.27 109.45 390.25 109.79
  Z"
/>
<path fill="#a8b8b0" fill-opacity="0.976" d="
  M 390.25 109.79
  L 414.50 109.79
  Q 405.52 110.27 400.75 110.00
  Q 399.83 109.95 399.75 110.46
  L 389.25 110.46
  Q 390.27 110.50 390.25 109.79
  Z"
/>
<path fill="#737b75" fill-opacity="0.988" d="
  M 338.11 110.28
  Q 340.32 110.52 339.75 111.00
  A 2.37 1.87 38.3 0 1 337.25 111.00
  Q 336.15 110.33 337.47 110.26
  Q 337.79 110.25 338.11 110.28
  Z"
/>
<path fill="#e65a00" d="
  M 389.25 110.46
  L 399.75 110.46
  Q 424.00 110.58 446.81 113.94
  Q 450.61 114.50 455.14 115.52
  Q 462.29 117.13 463.38 117.36
  Q 502.25 125.72 534.56 141.94
  Q 553.61 151.50 576.83 167.92
  Q 600.50 184.66 622.56 207.69
  Q 632.80 218.37 639.44 227.57
  Q 639.52 227.67 640.77 229.24
  Q 642.17 230.99 642.72 233.13
  A 1.10 1.10 -3.8 0 1 641.52 234.50
  Q 621.25 232.15 601.00 229.71
  Q 598.43 229.40 596.31 227.94
  Q 593.94 226.29 587.85 220.40
  Q 580.19 213.00 571.77 206.48
  Q 558.97 196.58 538.06 183.19
  Q 533.87 180.50 530.99 178.86
  Q 530.43 178.54 523.65 174.98
  Q 482.78 153.57 440.25 147.25
  Q 405.75 142.13 371.00 145.26
  Q 347.42 147.38 324.79 154.00
  Q 315.63 156.68 305.89 160.53
  Q 274.92 172.77 247.37 191.45
  Q 239.32 196.90 231.38 203.43
  Q 216.54 215.63 203.01 229.36
  A 3.90 3.90 -69.7 0 1 200.49 230.52
  Q 195.64 230.83 190.66 231.06
  Q 185.37 231.29 180.87 231.94
  Q 169.87 233.54 158.06 235.52
  Q 157.30 235.65 157.70 234.99
  Q 166.11 221.12 176.94 209.34
  Q 181.91 203.94 191.01 195.12
  Q 208.40 178.27 228.19 164.22
  Q 228.26 164.17 233.72 160.16
  Q 237.88 157.11 244.31 153.06
  Q 263.13 141.21 283.71 132.75
  Q 291.38 129.59 299.10 126.56
  Q 307.05 123.43 314.80 121.35
  Q 336.47 115.52 352.06 113.31
  Q 363.70 111.67 389.25 110.46
  Z"
/>
<ellipse fill="#b0a37c" cx="0.00" cy="0.00" transform="translate(478.53,117.10) rotate(29.6)" rx="1.10" ry="0.42"/>
<ellipse fill="#737b75" fill-opacity="0.988" cx="0.00" cy="0.00" transform="translate(510.13,126.50) rotate(-16.2)" rx="0.80" ry="0.48"/>
<path fill="#e5e7d8" fill-opacity="0.988" d="
  M 449.68 153.01
  Q 449.12 153.10 448.92 152.79
  A 0.41 0.32 -14.0 0 1 449.31 152.29
  Q 456.53 151.92 449.68 153.01
  Z"
/>
<path fill="#a8b8b0" fill-opacity="0.976" d="
  M 455.95 154.85
  Q 455.02 155.04 454.69 154.70
  Q 454.23 154.25 455.00 154.25
  Q 458.82 154.27 455.95 154.85
  Z"
/>
<path fill="#737b75" fill-opacity="0.988" d="
  M 294.96 168.91
  Q 295.22 168.54 295.31 169.00
  L 295.53 170.21
  Q 295.62 170.71 295.21 170.54
  Q 294.10 170.09 294.96 168.91
  Z"
/>
<circle fill="#eacfb0" cx="193.06" cy="173.95" r="0.81"/>
<ellipse fill="#b0a37c" cx="0.00" cy="0.00" transform="translate(203.75,174.36) rotate(-26.1)" rx="1.11" ry="0.44"/>
<path fill="#a8b8b0" fill-opacity="0.976" d="
  M 274.63 179.07
  Q 276.39 178.63 275.20 179.71
  Q 274.91 179.97 274.59 179.98
  Q 274.09 179.99 274.09 179.61
  A 0.69 0.50 -9.2 0 1 274.63 179.07
  Z"
/>
<path fill="#737b75" fill-opacity="0.988" d="
  M 200.45 181.79
  Q 200.23 181.62 200.37 181.46
  A 0.27 0.21 44.1 0 1 200.73 181.50
  Q 202.77 183.69 200.45 181.79
  Z"
/>
<circle fill="#b0a37c" cx="622.88" cy="190.12" r="0.64"/>
<ellipse fill="#a8b8b0" fill-opacity="0.976" cx="0.00" cy="0.00" transform="translate(249.26,194.33) rotate(46.2)" rx="1.24" ry="0.52"/>
<ellipse fill="#eacfb0" cx="0.00" cy="0.00" transform="translate(622.57,194.74) rotate(96.7)" rx="1.23" ry="0.74"/>
<path fill="#a8b8b0" fill-opacity="0.976" d="
  M 549.75 195.46
  L 550.46 195.50
  Q 551.12 197.47 549.84 196.63
  Q 549.50 196.41 549.46 196.13
  Q 549.41 195.75 549.75 195.46
  Z"
/>
<ellipse fill="#737b75" fill-opacity="0.988" cx="0.00" cy="0.00" transform="translate(166.09,206.03) rotate(-15.6)" rx="0.64" ry="0.51"/>
<path fill="#737b75" fill-opacity="0.988" d="
  M 169.75 206.21
  Q 169.38 205.43 170.22 205.65
  A 0.62 0.51 15.1 0 1 170.69 206.31
  Q 170.62 206.58 170.33 206.61
  A 0.68 0.54 73.0 0 1 169.75 206.21
  Z"
/>
<path fill="#b0a37c" d="
  M 161.53 211.55
  Q 160.36 213.61 160.90 210.74
  A 0.46 0.38 -71.7 0 1 161.48 210.38
  Q 162.03 210.67 161.53 211.55
  Z"
/>
<path fill="#a8b8b0" fill-opacity="0.976" d="
  M 569.56 210.44
  Q 571.18 210.26 573.11 212.32
  Q 573.53 212.77 572.94 212.72
  Q 572.56 212.68 572.31 212.44
  Q 570.91 211.06 569.40 211.97
  A 0.56 0.49 -32.4 0 1 568.69 211.86
  Q 567.83 210.63 569.56 210.44
  Z"
/>
<path fill="#fcfcf9" fill-opacity="0.996" d="
  M 284.25 386.29
  L 284.75 386.21
  L 325.00 385.04
  L 452.21 385.25
  L 480.65 386.25
  A 0.60 0.58 -83.8 0 0 481.25 385.75
  Q 481.61 383.64 481.63 381.50
  Q 481.72 371.73 482.21 361.97
  Q 482.75 351.32 484.33 344.16
  Q 486.47 334.49 490.06 327.06
  Q 501.62 303.17 527.41 292.12
  Q 537.44 287.82 549.25 287.25
  Q 564.16 286.53 577.86 290.24
  Q 585.27 292.24 592.07 296.01
  Q 598.96 299.84 604.81 304.69
  Q 616.76 314.58 623.23 328.45
  Q 626.76 336.01 628.56 345.43
  Q 630.24 354.22 630.34 363.25
  Q 630.42 370.63 630.75 377.96
  A 1.09 1.09 85.2 0 0 631.98 379.00
  Q 658.56 375.79 685.25 374.01
  Q 691.74 373.57 700.25 370.75
  Q 703.52 369.66 705.27 367.43
  Q 706.51 365.84 706.47 362.75
  Q 706.05 326.40 706.22 290.06
  Q 706.25 282.91 704.95 279.10
  Q 701.03 267.69 688.50 264.50
  Q 678.34 261.92 662.70 259.01
  Q 656.28 257.82 646.61 256.52
  Q 638.53 255.43 630.47 254.19
  Q 618.80 252.39 607.24 252.01
  A 0.56 0.55 -2.4 0 1 606.71 251.53
  Q 605.94 245.00 601.37 241.10
  Q 599.53 239.52 596.28 238.90
  Q 589.95 237.70 588.25 237.50
  Q 579.18 236.41 573.24 235.61
  Q 568.29 234.94 558.40 232.71
  Q 553.14 231.53 547.82 230.60
  Q 542.69 229.72 537.26 228.48
  Q 527.76 226.31 517.31 224.94
  Q 489.44 221.27 468.99 219.05
  Q 455.45 217.58 434.75 216.25
  Q 402.77 214.20 388.00 213.47
  Q 370.72 212.62 353.45 213.43
  Q 347.39 213.72 342.12 214.70
  Q 335.96 215.84 331.00 217.25
  Q 328.53 217.95 325.77 219.38
  Q 321.11 221.79 321.02 221.84
  Q 290.49 236.34 282.94 240.19
  Q 261.44 251.13 246.93 257.34
  Q 245.27 258.05 242.88 258.83
  Q 240.81 259.50 238.77 260.26
  A 0.36 0.35 77.7 0 1 238.29 259.94
  Q 237.59 249.59 227.25 246.75
  Q 211.64 242.46 196.75 243.44
  Q 166.76 245.40 139.66 257.66
  Q 132.61 260.84 126.77 264.56
  Q 120.59 268.50 114.91 273.15
  Q 101.21 284.35 93.02 300.04
  Q 85.06 315.28 82.25 329.25
  Q 80.45 338.23 77.41 360.23
  Q 76.64 365.82 76.65 366.25
  Q 76.68 370.06 79.61 371.98
  Q 81.79 373.41 87.30 373.76
  Q 92.93 374.12 98.56 373.97
  Q 107.89 373.71 107.95 373.71
  Q 123.27 373.62 138.29 373.93
  A 0.94 0.94 -84.2 0 0 139.25 373.01
  Q 139.40 366.58 139.57 360.16
  Q 139.79 352.06 140.60 347.39
  Q 142.69 335.27 148.19 325.69
  Q 155.01 313.79 166.36 306.13
  Q 171.31 302.79 176.29 299.50
  Q 178.02 298.56 179.85 297.89
  Q 179.96 297.85 180.58 297.50
  Q 181.22 297.14 181.79 297.75
  Q 180.53 299.48 178.69 300.39
  Q 175.69 301.86 175.19 302.22
  Q 169.83 306.09 164.69 310.25
  Q 164.39 310.50 164.15 311.03
  Q 163.69 312.07 162.31 312.81
  Q 157.86 315.21 155.19 319.19
  Q 152.81 322.74 150.47 325.49
  Q 149.21 326.98 148.61 328.42
  Q 147.92 330.05 147.35 331.72
  Q 147.19 332.17 146.80 332.51
  Q 144.75 334.33 144.75 335.75
  Q 144.75 338.28 143.19 342.19
  Q 141.43 346.58 141.40 352.40
  Q 141.38 356.13 141.38 356.24
  Q 141.20 362.97 141.24 369.71
  Q 141.25 371.37 140.70 372.68
  Q 140.09 374.16 139.33 375.45
  A 1.12 1.12 -68.7 0 1 138.13 375.98
  Q 132.95 374.92 128.81 374.97
  Q 112.93 375.15 97.06 375.63
  Q 92.96 375.75 83.25 375.00
  Q 78.34 374.62 75.79 371.16
  A 0.84 0.77 -51.2 0 1 75.74 370.32
  Q 76.69 368.44 74.81 368.62
  A 0.60 0.52 78.3 0 1 74.24 368.19
  L 73.52 365.76
  A 0.61 0.58 65.1 0 1 73.75 365.09
  Q 74.29 364.72 74.44 364.09
  Q 74.69 363.06 74.73 362.97
  Q 75.09 362.23 75.65 361.60
  A 1.12 1.03 -28.3 0 0 75.94 360.76
  Q 75.55 356.77 76.75 352.25
  Q 77.11 350.88 76.65 349.23
  A 1.81 1.57 49.1 0 1 76.65 348.27
  Q 78.30 342.96 79.06 336.56
  Q 79.25 335.01 79.87 333.29
  Q 80.50 331.54 80.71 330.10
  Q 81.33 325.84 82.61 321.75
  Q 82.99 320.56 84.52 315.16
  Q 85.39 312.05 86.94 308.69
  Q 88.58 305.10 90.89 298.70
  Q 91.57 296.81 92.89 295.32
  Q 93.79 294.32 94.68 293.32
  Q 95.52 292.36 96.10 291.08
  Q 97.40 288.20 99.05 285.49
  A 1.21 0.87 4.2 0 1 99.81 285.02
  Q 101.41 284.70 103.30 282.24
  Q 104.45 280.76 106.10 279.88
  Q 106.80 279.51 107.56 278.10
  Q 108.20 276.91 108.85 276.22
  Q 116.06 268.59 124.19 263.94
  Q 128.31 261.57 129.16 260.90
  Q 132.22 258.45 135.70 256.76
  Q 137.17 256.03 142.97 254.26
  Q 147.16 252.98 151.06 251.01
  Q 154.27 249.40 155.72 249.01
  Q 158.13 248.36 160.78 248.24
  Q 161.71 248.19 162.53 247.75
  Q 165.92 245.93 169.25 245.70
  Q 172.26 245.50 175.25 245.14
  Q 177.35 244.89 181.19 244.12
  Q 196.12 241.12 211.35 241.87
  Q 214.18 242.01 217.36 243.11
  Q 220.04 244.04 222.76 244.86
  A 1.82 1.71 -42.6 0 0 223.72 244.87
  Q 228.53 243.70 232.45 246.77
  Q 234.36 248.26 236.29 249.75
  A 1.64 1.61 -79.8 0 1 236.83 250.54
  Q 237.98 254.21 240.26 257.28
  A 0.87 0.85 68.4 0 0 241.06 257.64
  Q 243.82 257.34 246.32 256.07
  Q 251.71 253.34 257.32 251.08
  Q 264.29 248.28 270.72 244.41
  Q 279.40 239.17 288.72 235.14
  Q 289.12 234.96 289.50 234.55
  L 289.89 234.10
  A 1.58 1.06 8.8 0 1 290.76 233.69
  Q 294.57 233.13 299.06 230.06
  Q 301.58 228.34 307.62 225.86
  Q 309.31 225.16 314.57 222.61
  Q 318.04 220.93 321.77 219.88
  A 1.03 0.59 -8.9 0 0 322.48 219.31
  Q 322.54 219.02 322.23 218.84
  A 0.78 0.46 25.0 0 1 321.81 218.23
  Q 321.89 217.73 322.44 217.74
  Q 323.02 217.76 323.57 217.56
  Q 331.07 214.88 337.40 213.77
  Q 340.81 213.17 351.61 212.45
  Q 372.66 211.05 393.75 212.25
  Q 414.24 213.41 418.50 214.00
  Q 425.80 215.01 433.16 215.10
  Q 441.79 215.21 446.31 215.65
  Q 461.65 217.15 477.00 218.46
  A 1.83 1.59 -53.0 0 0 477.94 218.26
  Q 480.94 216.68 484.29 217.63
  Q 486.29 218.19 484.76 219.08
  A 1.02 0.41 -26.9 0 0 484.15 219.78
  Q 484.20 220.21 485.25 220.21
  Q 495.65 220.21 504.00 221.75
  Q 510.47 222.95 515.25 223.10
  Q 522.19 223.31 527.94 225.06
  Q 530.48 225.83 532.78 226.10
  Q 535.92 226.47 537.61 226.99
  Q 542.34 228.45 543.50 228.50
  Q 553.78 228.95 556.19 230.06
  Q 564.98 234.13 574.68 234.19
  A 1.61 1.40 -60.0 0 0 575.58 233.88
  Q 578.09 231.99 579.43 234.67
  A 1.68 1.64 -9.7 0 0 580.74 235.57
  L 599.69 237.74
  A 1.23 1.11 73.3 0 1 600.48 238.22
  Q 603.26 242.02 607.08 244.71
  A 0.80 0.79 -67.4 0 1 607.40 245.50
  Q 606.68 249.70 611.25 249.97
  Q 613.19 250.09 615.13 250.04
  Q 617.08 249.98 618.85 250.70
  Q 621.65 251.84 623.00 252.00
  Q 629.00 252.71 634.98 253.61
  Q 640.51 254.45 646.96 255.12
  Q 661.51 256.65 672.50 259.50
  Q 685.70 262.93 689.75 263.50
  Q 692.24 263.85 694.16 264.58
  Q 695.93 265.26 697.90 267.02
  Q 703.53 272.06 707.32 278.69
  Q 707.82 279.57 708.60 280.21
  A 0.43 0.41 -48.9 0 1 708.63 280.83
  Q 707.89 281.59 708.01 282.61
  Q 708.17 283.95 708.17 284.04
  Q 707.81 298.03 708.06 312.01
  Q 708.19 318.86 708.06 327.49
  Q 707.94 335.23 708.13 342.98
  Q 708.19 345.54 708.12 351.02
  Q 708.07 355.05 708.32 359.08
  Q 708.45 361.20 708.18 363.90
  Q 707.96 366.07 707.99 368.25
  A 1.37 1.25 66.8 0 1 707.68 369.14
  Q 705.37 371.81 702.06 372.83
  Q 700.48 373.31 698.59 374.11
  Q 696.85 374.84 694.94 374.97
  Q 693.75 375.05 693.19 375.46
  Q 692.60 375.89 692.19 376.50
  A 1.59 0.92 -71.1 0 1 691.48 377.12
  Q 689.47 377.83 688.22 376.22
  A 1.33 1.02 69.5 0 0 687.45 375.74
  Q 684.89 375.41 680.44 375.81
  Q 668.82 376.87 663.85 377.50
  Q 662.94 377.61 660.18 377.35
  Q 658.71 377.20 657.31 377.67
  Q 655.45 378.29 654.59 378.37
  Q 645.27 379.16 635.99 380.34
  Q 635.89 380.35 633.56 380.91
  Q 631.78 381.33 630.01 380.63
  Q 629.52 380.44 629.09 380.40
  Q 624.90 379.98 629.17 379.05
  A 1.01 1.01 -13.0 0 0 629.94 377.82
  Q 629.15 374.59 628.88 371.29
  Q 628.76 369.72 628.91 364.71
  Q 629.47 346.82 622.75 330.16
  A 0.36 0.35 -29.9 0 0 622.20 330.02
  Q 620.90 331.03 620.64 328.57
  Q 620.35 325.84 617.81 326.11
  A 0.42 0.37 0.1 0 1 617.34 325.70
  Q 617.48 324.79 618.27 324.20
  A 0.57 0.54 -33.3 0 0 618.44 323.49
  Q 612.53 312.88 602.67 305.87
  Q 601.87 305.30 600.38 303.59
  Q 599.31 302.36 597.69 301.56
  Q 593.07 299.30 587.72 295.83
  A 0.95 0.65 -36.3 0 0 586.90 295.86
  L 584.98 296.85
  A 1.19 0.88 38.9 0 1 584.04 296.81
  Q 582.41 296.06 584.50 295.52
  Q 585.36 295.29 585.14 294.68
  Q 585.02 294.35 584.55 294.13
  Q 580.90 292.46 576.96 291.78
  Q 573.22 291.13 573.05 291.10
  Q 559.31 288.38 543.75 289.25
  Q 539.91 289.46 536.95 290.62
  Q 533.44 292.00 533.33 292.03
  Q 531.91 292.47 530.48 292.90
  Q 529.05 293.32 527.80 294.10
  Q 518.61 299.77 515.44 300.94
  Q 513.47 301.66 512.24 302.72
  Q 509.59 305.00 509.56 305.02
  Q 505.91 307.48 504.06 310.06
  Q 500.43 315.14 497.16 317.69
  A 1.88 1.58 -12.5 0 0 496.57 318.46
  Q 496.19 319.46 495.84 320.47
  Q 495.49 321.49 494.91 322.41
  Q 490.18 329.86 487.92 338.35
  Q 486.89 342.24 486.15 344.44
  Q 485.47 346.45 484.85 348.48
  Q 484.25 350.45 484.12 352.61
  Q 483.54 362.69 483.11 372.78
  Q 482.88 378.21 482.88 378.22
  Q 483.15 381.12 485.16 383.39
  A 0.47 0.47 -40.8 0 1 485.11 384.06
  Q 483.19 385.65 482.61 388.00
  A 0.61 0.58 -80.1 0 1 481.99 388.46
  Q 460.72 386.92 445.94 387.06
  Q 400.67 387.50 389.50 387.25
  Q 379.45 387.03 372.16 387.07
  Q 359.80 387.14 354.84 387.03
  Q 322.81 386.29 304.75 387.25
  Q 291.99 387.93 286.27 387.94
  Q 285.41 387.94 284.98 387.57
  Q 284.42 387.10 284.25 386.29
  Z"
/>
<path fill="#fb6801" d="
  M 452.21 385.25
  Q 451.69 384.79 451.00 384.79
  Q 384.53 384.70 318.07 384.81
  Q 317.54 384.81 318.05 384.85
  Q 321.52 385.10 325.00 385.04
  L 284.75 386.21
  Q 285.00 367.60 285.00 349.00
  Q 285.00 342.51 284.54 339.25
  Q 284.55 336.55 284.06 334.94
  Q 277.53 313.44 259.47 300.37
  Q 259.43 300.34 257.98 299.16
  Q 256.56 298.00 253.81 296.69
  Q 244.20 292.10 238.75 290.46
  L 239.29 289.75
  Q 243.19 289.91 246.89 291.12
  Q 247.76 291.40 248.78 291.37
  Q 249.77 291.33 250.75 291.46
  Q 268.91 293.45 291.25 294.00
  Q 308.35 294.42 322.92 292.79
  Q 323.19 292.76 323.54 292.59
  Q 323.92 292.41 324.19 292.44
  Q 335.30 293.63 346.44 294.48
  Q 346.77 294.50 347.05 294.41
  Q 348.50 293.96 346.98 293.59
  Q 342.78 292.56 338.55 291.61
  Q 334.31 290.66 330.13 289.54
  Q 317.23 286.08 304.13 283.46
  Q 294.82 281.61 285.99 279.54
  Q 276.94 277.42 267.81 275.69
  Q 254.61 273.19 241.49 270.30
  Q 228.97 267.54 223.78 266.88
  Q 215.04 265.78 205.75 265.75
  Q 168.07 265.61 140.90 289.22
  Q 135.06 294.29 129.18 301.33
  Q 123.78 307.81 119.04 314.84
  Q 118.21 316.08 119.63 315.62
  Q 123.00 314.54 126.27 313.84
  Q 134.97 311.98 143.40 309.21
  Q 143.62 309.13 158.75 304.27
  Q 167.47 301.47 175.75 297.46
  Q 177.03 298.23 176.29 299.50
  Q 171.31 302.79 166.36 306.13
  Q 155.01 313.79 148.19 325.69
  Q 142.69 335.27 140.60 347.39
  Q 139.79 352.06 139.57 360.16
  Q 139.40 366.58 139.25 373.01
  A 0.94 0.94 -71.0 0 1 138.29 373.93
  Q 123.27 373.62 107.95 373.71
  Q 107.89 373.71 98.56 373.97
  Q 92.93 374.12 87.30 373.76
  Q 81.79 373.41 79.61 371.98
  Q 76.68 370.06 76.65 366.25
  Q 76.64 365.82 77.41 360.23
  Q 80.45 338.23 82.25 329.25
  Q 85.06 315.28 93.02 300.04
  Q 101.21 284.35 114.91 273.15
  Q 120.59 268.50 126.77 264.56
  Q 132.61 260.84 139.66 257.66
  Q 166.76 245.40 196.75 243.44
  Q 211.64 242.46 227.25 246.75
  Q 237.59 249.59 238.29 259.94
  A 0.36 0.35 77.7 0 0 238.77 260.26
  Q 240.81 259.50 242.88 258.83
  Q 245.27 258.05 246.93 257.34
  Q 261.44 251.13 282.94 240.19
  Q 290.49 236.34 321.02 221.84
  Q 321.11 221.79 325.77 219.38
  Q 328.53 217.95 331.00 217.25
  Q 335.96 215.84 342.12 214.70
  Q 347.39 213.72 353.45 213.43
  Q 370.72 212.62 388.00 213.47
  Q 402.77 214.20 434.75 216.25
  Q 455.45 217.58 468.99 219.05
  Q 489.44 221.27 517.31 224.94
  Q 527.76 226.31 537.26 228.48
  Q 542.69 229.72 547.82 230.60
  Q 553.14 231.53 558.40 232.71
  Q 568.29 234.94 573.24 235.61
  Q 579.18 236.41 588.25 237.50
  Q 589.95 237.70 596.28 238.90
  Q 599.53 239.52 601.37 241.10
  Q 605.94 245.00 606.71 251.53
  A 0.56 0.55 -2.4 0 0 607.24 252.01
  Q 618.80 252.39 630.47 254.19
  Q 638.53 255.43 646.61 256.52
  Q 656.28 257.82 662.70 259.01
  Q 678.34 261.92 688.50 264.50
  Q 701.03 267.69 704.95 279.10
  Q 706.25 282.91 706.22 290.06
  Q 706.05 326.40 706.47 362.75
  Q 706.51 365.84 705.27 367.43
  Q 703.52 369.66 700.25 370.75
  Q 691.74 373.57 685.25 374.01
  Q 658.56 375.79 631.98 379.00
  A 1.09 1.09 85.2 0 1 630.75 377.96
  Q 630.42 370.63 630.34 363.25
  Q 630.24 354.22 628.56 345.43
  Q 626.76 336.01 623.23 328.45
  Q 616.76 314.58 604.81 304.69
  Q 598.96 299.84 592.07 296.01
  Q 585.27 292.24 577.86 290.24
  Q 564.16 286.53 549.25 287.25
  Q 537.44 287.82 527.41 292.12
  Q 501.62 303.17 490.06 327.06
  Q 486.47 334.49 484.33 344.16
  Q 482.75 351.32 482.21 361.97
  Q 481.72 371.73 481.63 381.50
  Q 481.61 383.64 481.25 385.75
  A 0.60 0.58 -83.8 0 1 480.65 386.25
  L 452.21 385.25
  Z
  M 289.16 258.80
  Q 285.73 261.27 282.63 264.24
  Q 282.10 264.75 282.84 264.69
  Q 285.54 264.44 288.00 265.50
  Q 290.54 266.60 295.52 267.06
  Q 300.90 267.55 300.97 267.56
  Q 313.53 268.89 330.25 269.00
  Q 365.37 269.22 382.50 269.00
  Q 412.36 268.61 443.24 263.34
  Q 450.57 262.09 460.66 259.66
  Q 469.32 257.57 478.00 255.50
  Q 483.91 254.09 493.69 254.06
  Q 494.18 254.06 493.69 253.95
  Q 485.55 252.12 478.69 249.31
  Q 466.07 244.14 453.53 241.61
  Q 419.36 234.71 384.59 232.59
  Q 384.33 232.58 371.93 231.72
  Q 363.11 231.11 354.25 231.21
  Q 347.35 231.30 340.73 232.95
  Q 337.42 233.77 331.98 236.13
  Q 327.69 237.98 323.36 239.75
  Q 309.06 245.59 296.20 254.05
  Q 290.83 257.59 289.16 258.80
  Z
  M 285.29 364.07
  Q 285.21 365.88 285.27 368.37
  Q 285.30 369.81 285.41 368.37
  Q 285.61 365.77 285.39 364.05
  Q 285.31 363.48 285.29 364.07
  Z"
/>
<ellipse fill="#a8b8b0" fill-opacity="0.976" cx="0.00" cy="0.00" transform="translate(585.75,225.25) rotate(61.6)" rx="0.81" ry="0.43"/>
<ellipse fill="#e5e7d8" fill-opacity="0.988" cx="0.00" cy="0.00" transform="translate(294.60,225.66) rotate(-1.4)" rx="1.86" ry="0.69"/>
<path fill="#a8b8b0" fill-opacity="0.976" d="
  M 213.20 225.75
  Q 215.06 224.47 213.97 226.09
  Q 213.82 226.31 213.59 226.48
  Q 209.70 229.39 212.72 226.17
  Q 212.94 225.93 213.20 225.75
  Z"
/>
<ellipse fill="#a8b8b0" fill-opacity="0.976" cx="0.00" cy="0.00" transform="translate(645.62,226.50) rotate(24.1)" rx="0.69" ry="0.51"/>
<path fill="#a8b8b0" fill-opacity="0.976" d="
  M 578.05 230.35
  Q 578.97 231.04 577.21 230.56
  Q 577.00 230.50 576.80 230.39
  Q 575.23 229.45 577.54 230.11
  Q 577.83 230.19 578.05 230.35
  Z"
/>
<path fill="#fbf8ee" fill-opacity="0.996" d="
  M 296.20 254.05
  Q 309.06 245.59 323.36 239.75
  Q 327.69 237.98 331.98 236.13
  Q 337.42 233.77 340.73 232.95
  Q 347.35 231.30 354.25 231.21
  Q 363.11 231.11 371.93 231.72
  Q 384.33 232.58 384.59 232.59
  Q 419.36 234.71 453.53 241.61
  Q 466.07 244.14 478.69 249.31
  Q 485.55 252.12 493.69 253.95
  Q 494.18 254.06 493.69 254.06
  Q 483.91 254.09 478.00 255.50
  Q 469.32 257.57 460.66 259.66
  Q 450.57 262.09 443.24 263.34
  Q 412.36 268.61 382.50 269.00
  Q 365.37 269.22 330.25 269.00
  Q 313.53 268.89 300.97 267.56
  Q 300.90 267.55 295.52 267.06
  Q 290.54 266.60 288.00 265.50
  Q 285.54 264.44 282.84 264.69
  Q 282.10 264.75 282.63 264.24
  Q 285.73 261.27 289.16 258.80
  Q 290.83 257.59 296.20 254.05
  Z
  M 293.10 261.63
  Q 293.49 262.60 292.48 263.25
  Q 289.38 265.28 294.67 264.92
  A 1.45 1.40 16.9 0 0 295.70 264.39
  Q 297.19 262.55 299.48 263.37
  A 1.13 0.83 85.9 0 1 300.06 264.05
  Q 300.73 266.14 303.33 265.40
  Q 304.17 265.16 305.03 265.30
  Q 309.92 266.11 312.51 265.61
  A 1.44 0.56 -18.5 0 1 313.48 265.66
  L 316.12 267.17
  Q 316.74 267.52 317.01 267.54
  Q 323.25 268.05 329.50 267.97
  Q 340.84 267.83 342.00 267.85
  Q 364.91 268.15 387.82 267.56
  Q 389.89 267.51 392.59 266.85
  Q 394.47 266.39 397.31 265.81
  Q 399.12 265.45 400.19 266.61
  A 1.18 0.92 63.4 0 0 400.99 266.99
  Q 409.69 266.82 416.75 265.75
  Q 420.20 265.23 422.71 265.07
  Q 422.78 265.06 425.71 264.52
  Q 427.30 264.22 429.04 264.85
  A 1.35 1.34 -54.7 0 0 430.37 264.62
  Q 431.74 263.48 432.74 263.25
  Q 433.44 263.08 433.59 262.97
  Q 434.07 262.61 433.84 262.01
  A 0.37 0.36 75.6 0 1 434.13 261.51
  Q 435.97 261.29 437.11 262.43
  A 0.86 0.77 58.4 0 0 437.92 262.67
  Q 444.07 260.88 450.50 260.99
  Q 450.99 261.00 451.44 260.75
  Q 454.38 259.18 457.69 258.73
  Q 464.41 257.82 470.75 255.51
  Q 472.52 254.87 474.89 254.84
  Q 477.37 254.80 479.85 254.14
  Q 481.74 253.64 480.09 252.59
  Q 478.44 251.54 476.44 250.83
  Q 474.28 250.07 472.76 249.20
  Q 467.67 246.27 463.06 245.44
  Q 456.28 244.21 449.51 242.88
  Q 448.93 242.76 446.46 241.92
  Q 444.81 241.37 443.23 241.52
  Q 442.12 241.63 441.04 241.37
  Q 435.80 240.11 432.01 240.38
  Q 429.25 240.57 426.73 239.55
  Q 423.49 238.23 420.03 237.77
  Q 409.93 236.41 399.76 235.82
  Q 388.79 235.18 377.81 234.56
  Q 377.75 234.56 366.73 233.58
  Q 353.53 232.41 340.56 235.37
  Q 338.77 235.78 335.58 237.05
  Q 333.12 238.03 330.54 238.69
  A 1.57 1.38 -75.1 0 0 329.76 239.21
  Q 327.33 242.18 323.00 243.00
  Q 321.30 243.32 319.09 244.33
  Q 317.42 245.10 315.26 245.78
  Q 311.69 246.89 308.70 249.13
  Q 307.76 249.84 306.44 250.29
  Q 305.19 250.72 304.09 251.42
  Q 302.14 252.65 300.76 253.23
  Q 295.25 255.56 292.50 260.75
  Q 292.31 261.11 292.59 261.24
  A 0.91 0.26 21.2 0 1 293.10 261.63
  Z"
/>
<ellipse fill="#eacfb0" cx="0.00" cy="0.00" transform="translate(586.52,232.75) rotate(71.5)" rx="1.06" ry="0.68"/>
<path fill="#a8b8b0" fill-opacity="0.976" d="
  M 206.77 235.83
  Q 207.46 235.42 207.48 235.99
  A 0.62 0.52 -8.2 0 1 206.99 236.54
  Q 204.82 236.98 206.77 235.83
  Z"
/>
<path fill="#eacfb0" d="
  M 607.01 237.44
  Q 607.36 237.50 607.24 237.91
  A 0.76 0.63 1.4 0 1 606.63 238.39
  Q 605.11 238.61 606.43 237.62
  Q 606.74 237.39 607.01 237.44
  Z"
/>
<ellipse fill="#e5e7d8" fill-opacity="0.988" cx="0.00" cy="0.00" transform="translate(178.95,240.37) rotate(-1.1)" rx="2.73" ry="0.62"/>
<ellipse fill="#a8b8b0" fill-opacity="0.976" cx="0.00" cy="0.00" transform="translate(257.38,241.43) rotate(61.6)" rx="0.79" ry="0.62"/>
<path fill="#eacfb0" d="
  M 606.36 241.14
  Q 606.92 239.98 607.18 241.51
  A 0.65 0.50 79.3 0 1 606.81 242.23
  Q 606.52 242.29 606.34 241.98
  A 1.00 0.72 -53.1 0 1 606.36 241.14
  Z"
/>
<path fill="#a8b8b0" fill-opacity="0.976" d="
  M 225.23 242.72
  Q 224.80 242.86 224.65 242.52
  A 0.59 0.47 -25.2 0 1 224.98 241.85
  Q 226.69 241.03 225.79 242.27
  Q 225.53 242.62 225.23 242.72
  Z"
/>
<path fill="#737b75" fill-opacity="0.988" d="
  M 450.33 248.88
  Q 452.63 248.69 451.56 249.13
  Q 451.27 249.25 450.92 249.23
  Q 448.09 249.07 450.33 248.88
  Z"
/>
<ellipse fill="#a8b8b0" fill-opacity="0.976" cx="0.00" cy="0.00" transform="translate(308.16,251.53) rotate(15.6)" rx="0.64" ry="0.51"/>
<ellipse fill="#737b75" fill-opacity="0.988" cx="0.00" cy="0.00" transform="translate(302.83,260.12) rotate(32.6)" rx="0.93" ry="0.44"/>
<path fill="#fbf8ee" fill-opacity="0.996" d="
  M 250.75 291.46
  Q 249.76 290.90 251.00 290.96
  Q 253.82 290.81 254.76 287.83
  A 0.55 0.54 17.5 0 1 255.45 287.48
  Q 257.03 288.01 256.39 288.93
  A 0.95 0.95 20.7 0 0 257.06 290.41
  Q 259.26 290.67 261.25 291.28
  Q 263.61 292.00 265.38 292.02
  Q 281.62 292.15 285.00 292.50
  Q 293.89 293.41 302.81 292.85
  Q 303.22 292.82 303.71 292.50
  Q 304.86 291.76 306.75 292.00
  Q 314.19 292.96 323.61 291.60
  Q 325.48 291.33 325.18 290.56
  Q 324.90 289.84 322.34 289.17
  Q 321.01 288.82 319.66 289.14
  Q 316.96 289.76 314.58 288.34
  Q 312.28 286.96 311.22 286.70
  Q 308.61 286.07 305.95 285.74
  Q 304.37 285.55 303.18 284.53
  A 1.50 1.26 61.9 0 0 302.31 284.18
  Q 294.99 284.00 288.04 281.72
  A 0.85 0.79 -57.5 0 0 287.23 281.93
  Q 285.72 283.41 283.49 282.53
  Q 282.37 282.10 281.57 282.87
  A 1.19 0.77 -57.1 0 1 280.75 283.24
  Q 279.55 283.14 280.20 282.15
  A 1.07 0.76 9.8 0 1 281.00 281.77
  Q 282.21 281.74 282.49 280.68
  A 0.54 0.49 13.9 0 0 282.08 280.07
  Q 272.08 277.69 268.75 277.50
  Q 263.71 277.21 258.74 276.34
  A 1.64 1.35 -48.7 0 0 257.81 276.49
  Q 255.95 277.42 256.32 275.54
  A 0.43 0.43 -82.8 0 0 255.93 275.03
  Q 253.88 274.91 251.83 274.70
  Q 251.38 274.66 248.28 273.85
  Q 247.04 273.52 245.75 273.59
  Q 244.27 273.67 243.29 273.40
  Q 241.48 272.91 239.64 272.53
  Q 237.74 272.14 236.10 271.46
  Q 231.17 269.43 228.94 269.06
  Q 211.99 266.29 194.91 267.79
  Q 194.80 267.80 190.58 268.05
  Q 185.45 268.34 180.68 270.40
  A 0.83 0.81 85.7 0 0 180.22 270.95
  Q 179.71 273.05 179.54 270.40
  A 0.55 0.54 -17.1 0 0 178.72 269.97
  Q 175.16 272.05 171.29 272.96
  A 1.65 1.30 -70.2 0 0 170.49 273.46
  Q 168.96 275.13 166.00 275.75
  Q 161.29 276.74 156.79 279.90
  Q 151.90 283.33 151.68 283.49
  Q 149.98 284.77 148.60 286.40
  Q 146.99 288.27 145.54 289.20
  Q 142.78 290.97 140.00 292.74
  Q 138.88 293.46 137.06 295.38
  Q 135.83 296.68 134.25 297.57
  A 1.52 0.69 -20.2 0 0 133.57 298.24
  L 131.60 303.50
  A 1.56 0.79 -81.5 0 1 131.06 304.26
  Q 128.37 305.93 126.31 308.37
  Q 126.02 308.72 125.52 308.91
  Q 123.52 309.65 124.52 311.28
  A 1.09 1.01 -11.3 0 0 125.30 311.76
  Q 127.10 311.99 128.77 311.42
  Q 130.71 310.74 130.79 310.72
  Q 136.76 309.12 142.68 307.36
  Q 143.57 307.10 146.93 305.45
  Q 149.50 304.19 153.25 303.75
  Q 162.25 302.70 171.15 296.60
  A 1.83 1.38 20.5 0 1 172.07 296.33
  Q 173.81 296.32 175.16 295.16
  Q 178.25 292.52 182.03 293.82
  Q 182.52 293.99 182.99 293.91
  Q 184.12 293.73 185.26 293.64
  Q 188.39 293.38 186.50 294.76
  Q 186.19 294.99 185.54 295.22
  Q 184.54 295.57 183.75 296.29
  Q 183.16 296.21 183.00 295.80
  A 0.73 0.49 73.7 0 0 182.44 295.33
  Q 178.84 295.55 175.75 297.46
  Q 167.47 301.47 158.75 304.27
  Q 143.62 309.13 143.40 309.21
  Q 134.97 311.98 126.27 313.84
  Q 123.00 314.54 119.63 315.62
  Q 118.21 316.08 119.04 314.84
  Q 123.78 307.81 129.18 301.33
  Q 135.06 294.29 140.90 289.22
  Q 168.07 265.61 205.75 265.75
  Q 215.04 265.78 223.78 266.88
  Q 228.97 267.54 241.49 270.30
  Q 254.61 273.19 267.81 275.69
  Q 276.94 277.42 285.99 279.54
  Q 294.82 281.61 304.13 283.46
  Q 317.23 286.08 330.13 289.54
  Q 334.31 290.66 338.55 291.61
  Q 342.78 292.56 346.98 293.59
  Q 348.50 293.96 347.05 294.41
  Q 346.77 294.50 346.44 294.48
  Q 335.30 293.63 324.19 292.44
  Q 323.92 292.41 323.54 292.59
  Q 323.19 292.76 322.92 292.79
  Q 308.35 294.42 291.25 294.00
  Q 268.91 293.45 250.75 291.46
  Z"
/>
<path fill="#a8b8b0" fill-opacity="0.976" d="
  M 96.74 269.72
  Q 97.49 268.98 97.52 270.00
  A 0.72 0.56 85.3 0 1 97.05 270.71
  Q 96.76 270.76 96.59 270.48
  A 0.68 0.56 -39.4 0 1 96.74 269.72
  Z"
/>
<path fill="#d6bb8c" d="
  M 101.20 275.19
  Q 101.90 273.77 103.56 273.49
  Q 104.08 273.40 103.69 273.79
  L 102.06 275.45
  A 1.11 0.16 -47.0 0 1 101.41 275.97
  Q 100.72 276.16 101.20 275.19
  Z"
/>
<path fill="#b0a37c" d="
  M 96.96 274.10
  Q 97.40 273.66 97.48 274.49
  Q 97.51 274.73 97.43 275.01
  Q 96.86 277.14 96.71 274.88
  A 1.11 0.81 71.6 0 1 96.96 274.10
  Z"
/>
<ellipse fill="#a8b8b0" fill-opacity="0.976" cx="0.00" cy="0.00" transform="translate(174.39,277.98) rotate(3.8)" rx="0.87" ry="0.51"/>
<ellipse fill="#d6bb8c" cx="0.00" cy="0.00" transform="translate(97.46,280.20) rotate(128.1)" rx="0.97" ry="0.56"/>
<path fill="#eacfb0" d="
  M 247.21 285.80
  L 247.95 285.73
  Q 248.60 285.67 248.19 286.25
  Q 247.46 287.27 246.22 286.48
  A 0.55 0.36 39.4 0 1 245.99 285.74
  Q 246.14 285.62 246.44 285.74
  Q 246.72 285.85 247.21 285.80
  Z"
/>
<path fill="#fcfcf9" fill-opacity="0.996" d="
  M 235.04 288.75
  Q 236.30 290.64 238.75 290.46
  Q 244.20 292.10 253.81 296.69
  Q 256.56 298.00 257.98 299.16
  Q 259.43 300.34 259.47 300.37
  Q 277.53 313.44 284.06 334.94
  Q 284.55 336.55 284.54 339.25
  Q 284.39 339.60 284.04 339.50
  Q 283.75 338.02 283.46 336.54
  Q 283.21 335.18 282.43 333.76
  Q 280.89 330.93 278.56 325.44
  Q 276.27 320.04 270.72 313.68
  Q 270.66 313.62 269.69 312.03
  Q 269.02 310.93 267.56 310.92
  A 1.31 1.13 -19.2 0 1 266.72 310.59
  L 257.55 301.65
  Q 257.29 301.40 256.71 301.18
  Q 255.69 300.79 256.20 299.91
  A 0.90 0.64 -50.5 0 0 256.26 299.07
  Q 255.35 297.70 253.90 298.69
  A 0.75 0.69 -44.5 0 1 253.09 298.72
  Q 243.72 292.46 232.45 291.24
  A 1.58 1.22 -52.3 0 0 231.53 291.48
  Q 229.98 292.48 228.81 291.19
  Q 227.24 289.44 224.70 289.02
  Q 223.89 288.89 224.64 288.53
  Q 226.29 287.74 225.14 286.92
  Q 224.22 286.27 225.34 286.10
  Q 228.37 285.65 229.84 287.34
  Q 230.33 287.91 230.69 288.10
  Q 232.56 289.07 231.31 286.75
  Q 231.07 286.30 231.53 286.48
  Q 233.52 287.25 235.04 288.75
  Z
  M 227.72 288.11
  Q 229.94 288.51 228.02 287.62
  A 1.14 1.02 -34.1 0 0 227.44 287.54
  Q 225.95 287.78 227.72 288.11
  Z"
/>
<path fill="#b0a37c" d="
  M 227.72 288.11
  Q 225.95 287.78 227.44 287.54
  A 1.14 1.02 -34.1 0 1 228.02 287.62
  Q 229.94 288.51 227.72 288.11
  Z"
/>
<path fill="#e5e7d8" fill-opacity="0.988" d="
  M 239.75 288.79
  Q 239.76 289.35 239.25 289.54
  L 235.75 288.96
  Q 237.46 286.57 239.75 288.79
  Z"
/>
<path fill="#737b75" fill-opacity="0.988" d="
  M 235.04 288.75
  Q 235.35 289.05 235.75 288.96
  L 239.25 289.54
  L 239.29 289.75
  L 238.75 290.46
  Q 236.30 290.64 235.04 288.75
  Z"
/>
<path fill="#d6bb8c" d="
  M 239.75 288.79
  L 251.00 290.96
  Q 249.76 290.90 250.75 291.46
  Q 249.77 291.33 248.78 291.37
  Q 247.76 291.40 246.89 291.12
  Q 243.19 289.91 239.29 289.75
  L 239.25 289.54
  Q 239.76 289.35 239.75 288.79
  Z"
/>
<path fill="#b0a37c" d="
  M 183.75 296.29
  L 181.79 297.75
  Q 181.22 297.14 180.58 297.50
  Q 179.96 297.85 179.85 297.89
  Q 178.02 298.56 176.29 299.50
  Q 177.03 298.23 175.75 297.46
  Q 178.84 295.55 182.44 295.33
  A 0.73 0.49 73.7 0 1 183.00 295.80
  Q 183.16 296.21 183.75 296.29
  Z"
/>
<path fill="#e5e7d8" fill-opacity="0.988" d="
  M 241.95 298.11
  Q 239.77 294.55 242.51 296.10
  Q 242.97 296.36 243.70 296.61
  Q 245.59 297.26 242.70 298.36
  A 0.61 0.61 63.9 0 1 241.95 298.11
  Z"
/>
<path fill="#e5e7d8" fill-opacity="0.988" d="
  M 577.30 295.68
  Q 578.84 296.17 577.88 298.20
  A 1.08 1.08 41.8 0 0 577.94 299.23
  Q 578.76 300.56 577.52 300.50
  A 0.41 0.40 84.4 0 1 577.14 300.18
  L 576.34 296.59
  Q 576.04 295.29 577.30 295.68
  Z"
/>
<ellipse fill="#737b75" fill-opacity="0.988" cx="0.00" cy="0.00" transform="translate(602.41,308.12) rotate(29.0)" rx="1.00" ry="0.42"/>
<ellipse fill="#eacfb0" cx="0.00" cy="0.00" transform="translate(174.54,309.35) rotate(50.4)" rx="0.92" ry="0.63"/>
<path fill="#e5e7d8" fill-opacity="0.988" d="
  M 510.85 310.74
  Q 511.97 309.36 511.27 311.42
  Q 510.00 315.15 510.65 311.18
  Q 510.69 310.93 510.85 310.74
  Z"
/>
<ellipse fill="#a8b8b0" fill-opacity="0.976" cx="0.00" cy="0.00" transform="translate(257.42,311.67) rotate(133.9)" rx="0.65" ry="0.56"/>
<path fill="#737b75" fill-opacity="0.988" d="
  M 219.25 311.54
  Q 215.00 312.10 210.75 311.54
  Q 215.00 310.82 219.25 311.54
  Z"
/>
<path fill="#323334" d="
  M 210.75 311.54
  Q 215.00 312.10 219.25 311.54
  Q 234.82 313.04 246.04 323.75
  Q 246.93 325.97 249.00 327.21
  L 252.96 331.50
  Q 252.67 332.20 253.46 332.50
  Q 253.68 333.77 254.80 333.22
  Q 255.91 332.68 255.33 333.77
  Q 254.88 334.62 255.33 335.37
  Q 255.70 336.00 255.73 336.05
  Q 260.84 347.60 259.96 360.25
  Q 258.94 361.38 258.89 362.82
  Q 258.81 365.09 258.80 365.16
  Q 257.88 370.04 255.84 374.51
  Q 253.73 379.14 251.23 383.09
  Q 244.61 393.56 231.75 398.00
  Q 214.38 404.00 198.00 398.25
  Q 197.06 397.92 197.00 398.46
  Q 189.79 395.53 182.94 388.81
  Q 173.20 379.28 170.21 367.25
  Q 169.20 357.52 169.79 347.75
  L 171.04 343.00
  L 174.71 334.00
  Q 177.10 329.10 180.71 325.00
  Q 183.02 324.34 183.71 322.00
  L 186.36 320.19
  Q 187.00 319.75 187.14 319.62
  Q 187.44 319.36 188.00 319.21
  Q 194.95 315.45 202.51 313.15
  Q 202.91 313.03 203.49 313.09
  Q 204.77 313.24 205.50 312.29
  Q 208.05 311.41 210.75 311.54
  Z"
/>
<path fill="#323334" d="
  M 592.75 328.54
  Q 592.54 330.45 594.21 330.75
  Q 597.38 335.93 599.25 341.71
  Q 598.85 342.70 599.22 343.57
  Q 599.85 345.08 599.87 345.18
  Q 601.66 353.75 601.00 361.25
  Q 600.90 362.37 601.46 362.50
  Q 600.73 367.76 599.00 372.79
  Q 598.28 372.71 597.94 373.69
  Q 595.94 379.42 591.50 385.71
  Q 589.54 388.20 588.19 389.19
  Q 587.13 389.96 587.04 391.00
  L 584.00 393.04
  Q 583.19 392.85 582.76 393.32
  Q 582.21 393.93 582.07 394.02
  Q 573.71 399.09 564.04 400.74
  Q 562.45 401.01 564.25 401.04
  Q 557.23 401.98 550.21 401.00
  Q 550.37 400.53 550.01 400.47
  Q 544.17 399.44 538.49 397.78
  Q 538.07 397.66 538.00 397.96
  L 531.17 394.28
  A 1.16 1.03 46.9 0 0 530.30 394.20
  Q 529.46 394.51 529.61 393.72
  A 0.91 0.61 -71.4 0 0 529.39 392.90
  L 527.25 391.29
  L 525.96 390.00
  Q 526.10 389.37 525.44 388.81
  Q 523.19 386.93 521.20 384.32
  Q 519.59 382.23 517.66 379.31
  Q 509.16 366.50 511.29 350.75
  Q 512.11 350.30 512.11 349.45
  Q 512.12 348.25 512.16 348.06
  Q 514.19 339.61 518.32 331.97
  Q 518.61 331.44 519.99 329.77
  Q 520.91 328.67 521.29 327.25
  L 524.41 323.86
  A 0.92 0.74 61.0 0 0 524.55 323.04
  Q 524.34 322.32 525.28 322.59
  A 0.95 0.79 28.4 0 0 526.12 322.42
  L 528.50 320.21
  Q 531.83 319.02 534.25 316.46
  Q 539.41 313.39 544.50 312.50
  Q 566.77 308.61 584.86 321.42
  Q 586.23 322.38 588.70 325.06
  Q 590.52 327.02 592.75 328.54
  Z"
/>
<ellipse fill="#a8b8b0" fill-opacity="0.976" cx="174.13" cy="312.59" rx="0.90" ry="0.62"/>
<path fill="#737b75" fill-opacity="0.988" d="
  M 205.50 312.29
  Q 204.77 313.24 203.49 313.09
  Q 202.91 313.03 202.51 313.15
  Q 194.95 315.45 188.00 319.21
  Q 195.79 313.40 205.50 312.29
  Z"
/>
<path fill="#737b75" fill-opacity="0.988" d="
  M 534.25 316.46
  Q 531.83 319.02 528.50 320.21
  Q 531.02 317.80 534.25 316.46
  Z"
/>
<ellipse fill="#323334" cx="0.00" cy="0.00" transform="translate(243.29,319.12) rotate(44.3)" rx="2.04" ry="0.32"/>
<path fill="#737b75" fill-opacity="0.988" d="
  M 522.90 319.35
  Q 521.65 317.92 523.33 318.85
  A 0.59 0.50 25.0 0 1 523.62 319.48
  Q 523.46 319.99 522.90 319.35
  Z"
/>
<path fill="#737b75" fill-opacity="0.988" d="
  M 590.59 319.13
  Q 590.91 318.61 591.13 319.53
  Q 591.73 321.96 590.60 319.75
  A 0.69 0.54 51.0 0 1 590.59 319.13
  Z"
/>
<path fill="#737b75" fill-opacity="0.988" d="
  M 183.71 322.00
  Q 183.02 324.34 180.71 325.00
  L 183.71 322.00
  Z"
/>
<path fill="#737b75" fill-opacity="0.988" d="
  M 246.04 323.75
  Q 248.03 325.05 249.00 327.21
  Q 246.93 325.97 246.04 323.75
  Z"
/>
<ellipse fill="#a8b8b0" fill-opacity="0.976" cx="0.00" cy="0.00" transform="translate(252.27,326.41) rotate(35.5)" rx="1.07" ry="0.87"/>
<path fill="#737b75" fill-opacity="0.988" d="
  M 592.95 326.51
  Q 592.04 326.96 592.47 326.08
  A 1.10 0.91 -80.8 0 1 593.11 325.52
  Q 593.63 325.39 593.46 325.94
  A 1.04 0.85 -8.9 0 1 592.95 326.51
  Z"
/>
<path fill="#b0a37c" d="
  M 598.63 326.69
  Q 598.77 327.04 598.35 327.40
  A 0.69 0.56 -42.5 0 1 597.49 327.45
  Q 597.18 327.13 597.90 326.59
  A 0.51 0.41 -31.0 0 1 598.63 326.69
  Z"
/>
<path fill="#737b75" fill-opacity="0.988" d="
  M 521.29 327.25
  Q 520.91 328.67 519.99 329.77
  Q 518.61 331.44 518.32 331.97
  Q 514.19 339.61 512.16 348.06
  Q 512.12 348.25 512.11 349.45
  Q 512.11 350.30 511.29 350.75
  Q 512.71 337.44 521.29 327.25
  Z"
/>
<path fill="#eacfb0" d="
  M 592.75 328.54
  Q 594.96 328.23 594.21 330.75
  Q 592.54 330.45 592.75 328.54
  Z"
/>
<path fill="#e5e7d8" fill-opacity="0.988" d="
  M 253.46 332.50
  Q 252.67 332.20 252.96 331.50
  Q 253.37 328.89 254.87 329.94
  A 0.53 0.49 37.2 0 1 255.00 330.68
  L 253.46 332.50
  Z"
/>
<path fill="#e5e7d8" fill-opacity="0.988" d="
  M 618.89 332.47
  Q 618.25 332.27 618.07 331.54
  Q 617.89 330.83 618.29 330.53
  Q 618.75 330.18 619.33 332.02
  Q 619.54 332.67 618.89 332.47
  Z"
/>
<path fill="#737b75" fill-opacity="0.988" d="
  M 174.71 334.00
  L 171.04 343.00
  Q 171.80 338.05 174.71 334.00
  Z"
/>
<path fill="#e5e7d8" fill-opacity="0.988" d="
  M 284.54 339.25
  Q 285.00 342.51 285.00 349.00
  Q 285.00 367.60 284.75 386.21
  L 284.25 386.29
  Q 283.35 385.56 283.53 384.47
  Q 283.76 383.06 283.76 382.99
  Q 284.18 361.25 284.04 339.50
  Q 284.39 339.60 284.54 339.25
  Z"
/>
<path fill="#737b75" fill-opacity="0.988" d="
  M 599.25 341.71
  Q 603.35 351.75 601.46 362.50
  Q 600.90 362.37 601.00 361.25
  Q 601.66 353.75 599.87 345.18
  Q 599.85 345.08 599.22 343.57
  Q 598.85 342.70 599.25 341.71
  Z"
/>
<path fill="#737b75" fill-opacity="0.988" d="
  M 169.79 347.75
  Q 169.20 357.52 170.21 367.25
  Q 167.25 357.58 169.79 347.75
  Z"
/>
<path fill="#737b75" fill-opacity="0.988" d="
  M 259.96 360.25
  Q 259.44 370.77 253.69 379.94
  Q 252.49 381.84 251.18 384.48
  Q 249.89 387.08 248.23 388.66
  Q 237.46 398.89 221.25 401.25
  Q 207.87 403.19 197.00 398.46
  Q 197.06 397.92 198.00 398.25
  Q 214.38 404.00 231.75 398.00
  Q 244.61 393.56 251.23 383.09
  Q 253.73 379.14 255.84 374.51
  Q 257.88 370.04 258.80 365.16
  Q 258.81 365.09 258.89 362.82
  Q 258.94 361.38 259.96 360.25
  Z"
/>
<path fill="#9c3a10" d="
  M 285.39 364.05
  Q 285.61 365.77 285.41 368.37
  Q 285.30 369.81 285.27 368.37
  Q 285.21 365.88 285.29 364.07
  Q 285.31 363.48 285.39 364.05
  Z"
/>
<path fill="#a8b8b0" fill-opacity="0.976" d="
  M 72.51 366.32
  Q 72.99 365.92 73.00 366.97
  Q 73.01 367.24 72.91 367.52
  Q 72.16 369.71 72.18 367.18
  A 1.23 0.84 76.6 0 1 72.51 366.32
  Z"
/>
<path fill="#e5e7d8" fill-opacity="0.988" d="
  M 709.81 369.58
  Q 710.96 368.10 710.75 370.19
  A 1.15 1.10 -16.0 0 1 710.29 370.98
  Q 706.59 373.71 709.81 369.58
  Z"
/>
<path fill="#eacfb0" d="
  M 627.25 373.16
  Q 628.53 373.51 627.65 373.87
  A 0.84 0.75 49.9 0 1 626.90 373.76
  Q 625.21 372.60 627.25 373.16
  Z"
/>
<path fill="#737b75" fill-opacity="0.988" d="
  M 599.00 372.79
  Q 596.74 380.04 592.04 386.00
  Q 591.87 385.66 591.50 385.71
  Q 595.94 379.42 597.94 373.69
  Q 598.28 372.71 599.00 372.79
  Z"
/>
<path fill="#9c3a10" d="
  M 452.21 385.25
  L 325.00 385.04
  Q 321.52 385.10 318.05 384.85
  Q 317.54 384.81 318.07 384.81
  Q 384.53 384.70 451.00 384.79
  Q 451.69 384.79 452.21 385.25
  Z"
/>
<path fill="#a8b8b0" fill-opacity="0.976" d="
  M 591.50 385.71
  Q 591.87 385.66 592.04 386.00
  Q 590.21 389.17 587.04 391.00
  Q 587.13 389.96 588.19 389.19
  Q 589.54 388.20 591.50 385.71
  Z"
/>
<path fill="#e5e7d8" fill-opacity="0.988" d="
  M 525.96 390.00
  L 527.25 391.29
  Q 527.24 393.90 525.51 391.99
  Q 524.59 390.98 523.48 390.22
  A 0.90 0.58 29.3 0 1 523.07 389.44
  Q 523.21 388.93 524.03 389.45
  Q 524.92 390.00 525.96 390.00
  Z"
/>
<ellipse fill="#a8b8b0" fill-opacity="0.976" cx="0.00" cy="0.00" transform="translate(650.47,390.34) rotate(74.8)" rx="0.64" ry="0.51"/>
<path fill="#a8b8b0" fill-opacity="0.976" d="
  M 98.04 392.31
  Q 99.51 392.59 97.73 392.92
  A 0.84 0.69 -18.9 0 1 96.92 392.62
  Q 96.55 392.03 98.04 392.31
  Z"
/>
<path fill="#fcfcf9" fill-opacity="0.996" d="
  M 656.00 393.96
  L 655.50 394.04
  L 649.70 393.93
  A 0.87 0.87 -7.5 0 0 648.84 395.05
  Q 649.71 398.05 649.74 401.50
  Q 649.87 417.66 648.41 434.81
  A 0.93 0.89 -88.8 0 1 647.57 435.66
  L 641.25 436.04
  L 639.00 436.04
  L 626.25 436.29
  Q 624.98 436.61 625.00 435.54
  L 644.02 434.50
  Q 646.01 434.39 646.33 432.53
  Q 647.55 425.54 647.88 418.16
  Q 647.89 417.93 648.45 409.87
  Q 648.73 405.71 648.35 401.54
  Q 648.34 401.43 648.36 399.46
  Q 648.38 397.56 646.89 396.30
  A 0.81 0.70 30.1 0 1 646.62 395.52
  Q 647.08 393.91 648.36 392.81
  A 0.72 0.61 39.2 0 1 649.15 392.80
  Q 650.10 393.37 650.96 392.66
  Q 651.42 392.28 651.80 392.20
  Q 653.49 391.83 655.25 391.91
  Q 657.25 392.01 656.00 393.96
  Z"
/>
<path fill="#fcfcf9" fill-opacity="0.996" d="
  M 144.04 435.50
  Q 143.76 436.33 142.75 436.25
  Q 141.88 436.18 138.75 436.29
  Q 136.71 435.90 134.79 436.50
  Q 131.15 416.26 132.80 395.13
  A 0.82 0.82 2.3 0 0 131.98 394.25
  L 102.62 394.30
  Q 100.63 394.31 100.59 396.27
  L 99.93 433.56
  A 0.56 0.52 -88.4 0 0 100.43 434.13
  L 106.18 434.35
  Q 106.57 434.36 106.22 434.48
  Q 104.58 435.02 102.86 435.07
  Q 99.71 435.15 99.63 435.16
  Q 91.33 435.93 83.00 436.25
  Q 79.47 436.39 70.44 438.64
  Q 63.71 440.31 58.45 442.91
  Q 50.14 447.03 42.65 452.47
  Q 34.68 458.27 28.24 463.91
  Q 18.85 472.14 12.31 482.31
  Q 3.39 496.18 1.36 512.52
  Q 0.06 522.90 2.21 532.38
  Q 5.99 549.07 18.34 560.92
  Q 24.95 567.27 31.18 570.92
  Q 37.83 574.82 46.50 577.00
  Q 55.96 579.38 68.75 578.75
  Q 92.65 577.58 132.00 577.96
  L 164.75 578.21
  Q 172.74 579.01 181.51 578.45
  A 3.20 2.87 65.9 0 1 183.98 579.55
  L 186.96 583.00
  Q 195.21 591.55 203.44 598.31
  Q 215.57 608.29 229.63 618.41
  Q 232.39 620.40 236.22 622.65
  Q 239.60 624.63 242.90 626.73
  Q 249.30 630.79 252.97 632.74
  Q 271.77 642.74 291.74 650.09
  Q 302.78 654.15 309.80 656.28
  Q 317.49 658.61 328.25 661.25
  Q 347.00 665.85 359.23 667.15
  Q 379.94 669.33 400.75 670.00
  Q 410.00 670.30 421.09 669.08
  Q 427.90 668.33 440.93 666.57
  Q 479.55 661.33 518.44 646.19
  Q 528.98 642.08 537.17 637.98
  Q 543.11 635.01 554.71 628.38
  Q 582.76 612.36 606.51 590.26
  Q 608.87 588.07 610.79 585.50
  L 617.39 579.09
  A 1.33 1.06 17.3 0 1 618.24 578.76
  L 631.00 578.46
  L 686.00 577.96
  Q 704.07 577.11 717.50 572.00
  Q 736.26 564.87 751.53 548.27
  Q 754.08 545.50 756.94 541.19
  Q 771.02 519.96 775.53 495.50
  Q 777.87 482.80 778.83 469.93
  Q 778.85 469.68 780.16 453.22
  Q 780.84 444.65 780.75 436.04
  Q 782.58 436.73 782.36 438.47
  Q 782.09 440.61 782.09 440.70
  Q 782.40 455.52 780.81 465.56
  Q 779.56 473.51 780.58 482.16
  A 2.62 2.57 -35.9 0 1 780.34 483.56
  Q 778.23 487.81 777.84 490.95
  Q 777.47 493.94 777.45 494.03
  Q 774.93 506.54 771.09 518.71
  Q 770.96 519.13 770.56 519.52
  Q 769.48 520.59 768.69 522.69
  Q 765.14 532.06 758.34 541.35
  Q 757.84 542.03 756.32 545.07
  Q 755.62 546.47 754.48 547.56
  Q 752.59 549.38 752.54 549.44
  Q 748.02 554.45 746.69 555.44
  Q 744.21 557.28 742.02 559.44
  Q 740.76 560.68 739.12 561.58
  Q 737.33 562.55 736.06 563.56
  Q 726.43 571.26 714.57 574.60
  Q 713.76 574.83 713.56 575.50
  Q 713.37 576.16 713.16 576.37
  Q 710.61 579.01 706.94 577.31
  Q 704.63 576.25 704.06 578.81
  Q 703.58 580.96 701.36 579.19
  A 1.58 1.58 61.3 0 0 700.20 578.85
  Q 688.02 580.20 676.18 580.09
  Q 658.01 579.92 656.81 579.94
  Q 640.26 580.20 627.75 580.00
  Q 625.34 579.96 623.41 580.79
  Q 623.36 580.81 621.22 582.42
  Q 619.50 583.71 617.40 582.29
  A 0.88 0.76 45.2 0 0 616.54 582.22
  Q 615.33 582.87 614.84 584.20
  A 1.48 1.27 88.2 0 1 614.25 584.93
  Q 612.55 585.90 611.46 587.51
  A 1.75 1.71 4.9 0 1 610.72 588.12
  Q 608.73 589.01 607.92 591.02
  A 1.68 0.98 60.4 0 0 607.91 591.98
  Q 608.19 593.05 607.21 592.71
  A 1.09 0.80 33.2 0 0 606.33 592.76
  Q 604.86 593.73 603.93 595.26
  A 1.62 1.44 -83.6 0 1 603.24 595.88
  Q 599.04 597.71 596.24 601.29
  A 1.83 1.56 4.7 0 1 595.46 601.85
  Q 592.58 602.92 591.69 605.83
  A 1.61 1.32 84.4 0 1 591.16 606.62
  L 579.69 614.94
  Q 577.03 616.87 576.06 617.31
  Q 574.21 618.17 572.55 619.37
  Q 572.51 619.40 569.59 621.12
  Q 568.00 622.06 567.20 623.79
  A 1.35 0.99 54.3 0 0 567.19 624.71
  Q 567.76 626.29 566.40 626.49
  Q 564.84 626.73 564.65 626.78
  Q 563.36 627.11 562.00 627.00
  Q 559.78 626.82 560.00 629.00
  Q 560.17 630.70 558.97 630.70
  Q 558.64 630.70 557.46 630.22
  Q 555.03 629.23 552.71 630.60
  Q 552.28 630.85 551.63 631.22
  Q 549.64 632.35 552.44 632.96
  A 0.28 0.27 -62.7 0 1 552.58 633.41
  L 550.81 635.36
  A 0.35 0.34 -40.1 0 1 550.26 635.32
  Q 548.97 633.33 546.68 634.50
  Q 546.27 634.72 545.75 634.79
  Q 543.80 635.06 543.59 637.07
  A 0.74 0.68 86.8 0 1 543.08 637.69
  Q 538.03 639.07 534.81 642.31
  Q 533.49 643.65 531.98 643.38
  Q 531.42 643.27 531.02 643.40
  Q 525.45 645.17 520.13 647.57
  Q 520.07 647.60 518.18 648.83
  Q 517.23 649.45 515.75 649.75
  Q 510.06 650.90 502.03 653.89
  A 1.70 1.43 -78.2 0 0 501.29 654.47
  Q 499.14 657.39 494.75 656.75
  Q 491.95 656.34 488.69 658.24
  A 1.07 0.93 80.5 0 0 488.22 659.01
  Q 488.01 660.88 486.61 660.09
  A 2.02 1.05 44.6 0 0 485.70 659.81
  Q 478.12 659.88 472.56 662.56
  Q 471.32 663.16 470.30 663.17
  Q 468.22 663.19 468.21 663.19
  Q 465.53 663.74 463.01 664.80
  Q 460.80 665.74 458.78 665.82
  Q 448.79 666.22 438.99 668.21
  Q 430.61 669.90 422.06 670.06
  A 0.76 0.55 2.9 0 0 421.35 670.52
  L 421.17 671.45
  A 0.86 0.55 -87.2 0 1 420.72 672.09
  Q 418.57 672.72 416.53 672.19
  Q 413.86 671.50 412.84 671.51
  Q 406.92 671.54 401.00 671.71
  Q 394.64 671.88 388.34 671.27
  Q 376.21 670.10 376.13 670.10
  Q 361.49 669.05 346.92 667.24
  Q 346.87 667.23 343.06 666.98
  Q 340.01 666.77 337.21 665.47
  A 1.78 0.97 -23.8 0 0 336.27 665.39
  L 335.75 665.48
  A 1.39 0.75 47.0 0 1 334.86 665.18
  Q 333.94 664.51 332.82 664.44
  Q 331.28 664.34 330.74 664.16
  Q 322.04 661.28 319.56 660.69
  Q 311.47 658.77 306.71 656.70
  A 1.98 1.79 -34.4 0 0 305.75 656.57
  Q 303.10 656.88 300.54 656.09
  A 1.63 1.26 74.1 0 1 299.78 655.53
  Q 298.40 653.69 296.06 653.23
  Q 290.54 652.14 286.56 650.19
  Q 285.15 649.50 283.93 649.52
  A 0.70 0.69 -11.6 0 1 283.27 649.09
  Q 282.36 646.82 279.80 646.90
  A 1.53 1.48 59.6 0 1 278.91 646.65
  Q 277.03 645.43 274.93 646.27
  Q 274.81 646.32 273.78 646.99
  Q 272.48 647.84 272.69 645.31
  Q 272.77 644.29 270.25 643.75
  Q 267.03 643.05 264.24 641.31
  Q 260.11 638.74 255.96 636.23
  Q 255.53 635.97 252.76 634.76
  Q 251.65 634.28 250.70 633.51
  Q 249.39 632.45 248.77 632.09
  Q 235.46 624.41 222.43 616.27
  Q 221.82 615.88 222.45 615.79
  L 222.73 615.75
  Q 222.94 615.71 222.77 615.61
  Q 213.15 609.72 204.57 602.39
  A 0.37 0.36 -57.6 0 0 204.00 602.52
  Q 202.85 605.04 201.17 603.23
  A 1.26 1.25 -44.8 0 1 201.18 601.53
  Q 202.97 599.59 202.35 598.91
  Q 201.98 598.51 200.55 598.13
  Q 199.18 597.75 198.50 599.75
  Q 197.73 602.00 195.88 600.57
  A 0.60 0.57 -56.9 0 1 195.74 599.82
  L 197.69 596.25
  A 0.67 0.66 37.3 0 0 197.58 595.45
  Q 191.01 588.79 183.82 582.79
  Q 182.26 581.50 180.25 581.16
  Q 173.46 580.01 171.75 580.00
  Q 125.51 579.62 79.26 580.17
  Q 79.19 580.17 66.26 580.77
  Q 51.72 581.45 37.54 577.69
  A 1.13 0.87 -50.9 0 0 36.69 577.89
  Q 35.59 578.69 33.98 578.06
  Q 32.93 577.65 33.99 577.26
  Q 35.16 576.83 34.56 575.94
  Q 34.20 575.39 32.65 574.75
  A 1.05 0.92 -88.2 0 1 32.09 574.07
  Q 31.76 572.83 30.57 572.38
  Q 29.17 571.85 29.12 571.83
  Q 26.62 570.46 24.69 568.31
  Q 22.77 566.18 20.19 567.44
  Q 19.57 567.74 19.25 567.44
  A 0.98 0.45 -66.8 0 1 19.23 566.56
  Q 19.53 565.69 19.00 564.25
  Q 18.08 561.72 14.75 560.50
  Q 12.28 559.59 11.81 556.50
  A 1.70 1.43 -75.3 0 0 11.41 555.65
  Q 8.16 552.20 7.05 547.54
  A 1.73 1.71 15.2 0 0 6.58 546.73
  Q 3.00 543.29 2.54 538.25
  Q 2.49 537.75 2.22 537.34
  Q 0.00 534.05 0.00 529.94
  L 0.00 513.94
  Q 0.33 511.04 0.66 508.15
  Q 1.01 505.12 1.83 502.45
  Q 4.75 492.87 8.82 483.71
  Q 9.50 482.17 10.58 480.58
  Q 11.45 479.30 12.29 477.99
  Q 12.55 477.59 13.02 477.34
  Q 14.72 476.42 15.75 474.86
  Q 17.64 472.04 17.69 471.98
  Q 21.54 467.53 26.12 463.81
  A 1.29 0.86 80.8 0 0 26.49 463.00
  Q 26.60 461.95 27.82 461.60
  Q 30.10 460.95 31.61 459.31
  Q 33.69 457.05 33.72 457.02
  Q 36.68 454.45 39.94 452.27
  Q 41.07 451.51 43.21 449.34
  Q 45.14 447.38 47.83 446.65
  Q 49.79 446.11 51.07 445.38
  Q 52.61 444.48 54.25 443.79
  Q 54.96 443.49 55.15 443.05
  Q 55.31 442.65 55.20 442.21
  A 0.63 0.51 70.0 0 1 55.44 441.52
  Q 58.66 439.88 62.31 439.81
  A 0.98 0.91 -71.5 0 0 63.08 439.39
  Q 64.09 437.95 65.80 437.86
  Q 68.44 437.73 68.69 437.67
  Q 73.47 436.61 78.31 435.89
  Q 78.76 435.82 79.22 435.52
  Q 80.61 434.60 82.26 434.71
  Q 84.50 434.86 85.25 434.74
  Q 89.92 433.99 94.45 434.23
  A 2.11 2.11 -68.7 0 0 96.20 433.46
  Q 97.77 431.57 98.47 429.80
  Q 99.00 428.46 98.98 425.64
  Q 98.86 407.69 99.25 399.75
  Q 99.34 397.88 98.58 396.86
  A 0.80 0.68 42.5 0 1 98.48 396.06
  Q 99.79 393.68 101.75 393.25
  Q 103.14 392.95 109.09 393.12
  Q 112.68 393.22 116.42 393.07
  Q 123.31 392.79 130.21 392.95
  Q 132.58 393.01 133.61 393.79
  Q 135.00 394.85 134.52 396.69
  Q 133.97 398.83 133.95 399.41
  Q 133.55 413.41 135.11 428.30
  A 1.40 1.39 10.1 0 0 135.89 429.41
  Q 138.19 430.54 136.98 433.06
  A 0.63 0.57 -59.8 0 0 137.14 433.81
  Q 139.53 435.57 142.58 434.64
  Q 143.80 434.27 144.04 435.50
  Z"
/>
<path fill="#737b75" fill-opacity="0.988" d="
  M 584.00 393.04
  Q 575.40 400.07 564.25 401.04
  Q 562.45 401.01 564.04 400.74
  Q 573.71 399.09 582.07 394.02
  Q 582.21 393.93 582.76 393.32
  Q 583.19 392.85 584.00 393.04
  Z"
/>
<path fill="#e5e7d8" fill-opacity="0.988" d="
  M 589.53 394.47
  Q 587.42 392.33 590.48 393.61
  A 0.77 0.71 13.7 0 1 590.95 394.31
  Q 590.89 395.84 589.53 394.47
  Z"
/>
<path fill="#fcfcf9" fill-opacity="0.996" d="
  M 691.21 435.50
  Q 687.36 436.64 683.33 436.33
  Q 683.23 436.32 681.68 436.41
  Q 680.46 436.47 680.21 435.25
  L 679.46 424.25
  L 679.21 415.50
  L 679.20 398.32
  A 1.82 1.77 -88.1 0 0 677.55 396.51
  L 669.00 395.96
  Q 668.63 394.86 667.25 395.21
  L 670.94 394.93
  A 1.86 1.25 15.3 0 0 671.83 394.63
  Q 675.07 392.24 677.74 395.07
  Q 678.06 395.42 678.54 395.61
  Q 681.39 396.74 681.12 399.91
  Q 680.98 401.55 680.98 401.60
  Q 680.75 411.32 681.49 421.00
  Q 681.96 427.09 682.06 433.19
  A 0.78 0.71 -80.1 0 0 682.51 433.90
  Q 685.01 434.94 690.37 433.88
  A 2.38 2.36 62.5 0 1 692.54 434.57
  Q 692.99 435.04 691.21 435.50
  Z"
/>
<path fill="#ea6105" d="
  M 655.50 394.04
  Q 655.67 394.37 655.95 394.58
  Q 656.18 394.75 656.60 394.77
  Q 662.83 395.06 669.00 395.96
  L 677.55 396.51
  A 1.82 1.77 -88.1 0 1 679.20 398.32
  L 679.21 415.50
  Q 678.56 415.55 678.56 416.06
  Q 678.55 418.47 679.07 423.99
  Q 679.11 424.36 679.46 424.25
  L 680.21 435.25
  Q 678.69 434.18 677.19 435.44
  Q 675.16 437.13 671.53 438.40
  A 1.68 0.96 -70.7 0 0 670.83 439.01
  Q 670.16 440.00 668.78 439.20
  A 1.90 1.89 -53.6 0 0 666.44 439.56
  Q 665.11 441.02 663.37 440.78
  Q 661.07 440.45 660.95 440.45
  Q 657.43 440.46 653.93 439.89
  Q 653.47 439.82 652.97 440.00
  Q 649.86 441.14 648.14 438.00
  Q 647.75 437.30 647.36 438.00
  Q 647.05 438.55 646.88 437.91
  A 0.40 0.38 -17.0 0 1 647.14 437.45
  Q 649.99 436.49 646.09 436.71
  Q 645.50 436.75 644.91 436.63
  Q 643.09 436.26 641.25 436.04
  L 647.57 435.66
  A 0.93 0.89 -88.8 0 0 648.41 434.81
  Q 649.87 417.66 649.74 401.50
  Q 649.71 398.05 648.84 395.05
  A 0.87 0.87 -7.5 0 1 649.70 393.93
  L 655.50 394.04
  Z"
/>
<path fill="#eacfb0" d="
  M 655.50 394.04
  L 656.00 393.96
  L 667.25 395.21
  Q 668.63 394.86 669.00 395.96
  Q 662.83 395.06 656.60 394.77
  Q 656.18 394.75 655.95 394.58
  Q 655.67 394.37 655.50 394.04
  Z"
/>
<path fill="#fa6801" d="
  M 134.79 436.50
  Q 134.82 437.91 136.50 438.25
  Q 139.29 438.81 141.63 438.51
  Q 143.72 438.24 144.39 438.35
  Q 145.84 438.60 147.02 439.42
  Q 149.64 441.23 149.69 441.26
  Q 156.00 444.40 165.56 446.19
  Q 170.67 447.14 174.55 446.56
  Q 179.42 445.83 179.51 445.82
  Q 186.60 445.35 193.71 445.28
  Q 199.33 445.23 207.90 444.82
  Q 213.87 444.53 219.85 444.69
  Q 220.09 444.69 231.28 444.84
  Q 237.51 444.91 245.57 445.73
  Q 245.72 445.74 245.88 445.78
  Q 251.21 446.88 255.59 443.80
  A 1.84 1.56 -59.7 0 1 256.50 443.48
  Q 270.28 442.91 284.04 443.72
  Q 287.30 443.91 292.43 444.68
  Q 296.61 445.30 300.81 445.72
  Q 300.88 445.72 307.14 446.60
  Q 313.76 447.54 321.31 445.81
  Q 326.32 444.67 332.69 444.83
  Q 338.51 444.97 341.16 444.56
  Q 345.37 443.91 349.48 442.68
  Q 351.76 442.00 349.60 442.00
  Q 349.30 442.00 349.54 441.78
  Q 350.59 440.82 349.78 438.89
  A 0.65 0.64 79.5 0 0 349.20 438.49
  Q 346.75 438.41 344.01 438.15
  Q 342.44 438.00 344.00 437.97
  Q 357.48 437.71 370.95 437.81
  Q 371.27 437.81 371.02 438.05
  Q 370.71 438.35 371.25 438.74
  Q 371.48 438.91 371.93 438.96
  Q 373.60 439.13 374.17 440.71
  A 1.52 1.09 87.6 0 0 374.74 441.44
  Q 377.89 443.21 380.31 442.81
  Q 382.63 442.43 384.08 442.79
  Q 384.62 442.92 385.06 442.85
  Q 387.66 442.38 390.28 442.52
  Q 391.70 442.60 393.83 442.36
  Q 395.65 442.16 397.45 442.51
  Q 401.04 443.21 401.09 443.21
  Q 410.90 444.26 420.74 443.33
  A 0.10 0.10 -78.8 0 1 420.83 443.47
  Q 420.77 443.60 420.86 443.68
  Q 420.95 443.75 421.15 443.74
  Q 425.80 443.30 432.81 443.56
  Q 435.60 443.67 439.50 442.90
  A 0.53 0.28 67.1 0 1 439.92 443.24
  Q 440.04 443.49 440.56 443.44
  Q 447.06 442.83 451.57 442.76
  Q 452.19 442.75 453.86 442.30
  Q 455.07 441.97 456.30 442.37
  Q 456.91 442.56 457.35 442.60
  Q 457.90 442.65 458.44 442.73
  Q 458.91 442.80 458.50 443.07
  Q 457.02 444.03 460.00 443.75
  Q 464.11 443.37 473.26 444.06
  Q 478.26 444.43 483.25 444.05
  Q 494.06 443.21 504.89 443.21
  Q 505.34 443.21 514.07 442.77
  Q 519.85 442.48 525.55 443.78
  Q 527.54 444.24 529.56 444.60
  Q 530.75 444.82 533.51 445.55
  Q 536.48 446.35 539.56 446.31
  Q 541.74 446.27 543.50 446.72
  Q 546.49 447.47 547.50 447.25
  Q 551.17 446.47 554.87 446.37
  Q 558.93 446.26 562.23 445.96
  Q 566.34 445.58 571.50 445.75
  Q 574.85 445.86 578.33 444.41
  Q 580.49 443.51 582.36 443.50
  Q 590.61 443.44 598.81 442.62
  Q 598.90 442.61 601.13 442.09
  Q 602.76 441.70 605.00 442.25
  Q 607.60 442.89 613.47 442.41
  Q 613.62 442.40 617.02 442.35
  Q 620.18 442.30 622.89 440.59
  Q 623.30 440.33 623.81 440.29
  Q 626.74 440.02 627.67 437.29
  A 0.70 0.66 -80.3 0 1 628.31 436.81
  Q 633.91 436.78 639.50 436.56
  Q 642.38 436.44 639.00 436.04
  L 641.25 436.04
  Q 643.09 436.26 644.91 436.63
  Q 645.50 436.75 646.09 436.71
  Q 649.99 436.49 647.14 437.45
  A 0.40 0.38 -17.0 0 0 646.88 437.91
  Q 647.05 438.55 647.36 438.00
  Q 647.75 437.30 648.14 438.00
  Q 649.86 441.14 652.97 440.00
  Q 653.47 439.82 653.93 439.89
  Q 657.43 440.46 660.95 440.45
  Q 661.07 440.45 663.37 440.78
  Q 665.11 441.02 666.44 439.56
  A 1.90 1.89 -53.6 0 1 668.78 439.20
  Q 670.16 440.00 670.83 439.01
  A 1.68 0.96 -70.7 0 1 671.53 438.40
  Q 675.16 437.13 677.19 435.44
  Q 678.69 434.18 680.21 435.25
  Q 680.46 436.47 681.68 436.41
  Q 683.23 436.32 683.33 436.33
  Q 687.36 436.64 691.21 435.50
  Q 691.16 435.87 691.50 436.04
  Q 690.15 436.90 692.32 436.94
  Q 719.03 437.41 745.75 437.21
  L 776.00 437.26
  A 1.43 0.74 -51.5 0 0 776.84 436.88
  Q 777.34 436.44 778.06 436.48
  Q 778.28 436.49 778.43 436.44
  Q 779.03 436.21 777.75 436.21
  L 778.79 435.75
  Q 779.71 436.14 780.75 436.04
  Q 780.84 444.65 780.16 453.22
  Q 778.85 469.68 778.83 469.93
  Q 777.87 482.80 775.53 495.50
  Q 771.02 519.96 756.94 541.19
  Q 754.08 545.50 751.53 548.27
  Q 736.26 564.87 717.50 572.00
  Q 704.07 577.11 686.00 577.96
  Q 686.30 577.22 685.25 577.21
  Q 660.87 576.96 636.50 577.75
  Q 632.40 577.88 631.00 578.46
  L 618.24 578.76
  A 1.33 1.06 17.3 0 0 617.39 579.09
  L 610.79 585.50
  Q 610.64 585.27 610.41 585.22
  A 1.08 0.33 6.3 0 1 609.74 584.93
  Q 608.21 583.12 606.09 582.25
  Q 603.15 581.04 603.02 580.98
  Q 598.68 578.97 593.89 579.32
  Q 590.65 579.55 590.60 579.55
  Q 585.29 579.67 580.00 579.22
  Q 576.26 578.90 571.44 580.81
  Q 569.09 581.74 566.46 580.00
  Q 566.00 579.56 564.25 579.50
  Q 519.79 578.08 508.50 578.07
  Q 448.35 578.00 388.20 578.00
  Q 388.11 578.00 374.80 578.17
  Q 367.52 578.26 360.25 577.96
  Q 357.72 577.01 355.25 577.96
  L 328.25 577.96
  Q 327.79 577.51 326.75 577.50
  Q 320.87 577.47 315.00 577.54
  Q 287.85 577.52 260.71 577.32
  Q 259.95 577.31 259.48 577.59
  Q 258.90 577.92 258.50 578.46
  Q 245.88 579.09 233.25 579.26
  Q 233.01 579.26 232.96 579.50
  Q 226.49 580.09 223.25 579.00
  Q 221.23 578.32 218.00 579.25
  Q 216.97 579.54 212.62 579.92
  Q 211.54 580.01 209.18 580.84
  Q 207.44 581.45 205.50 581.25
  Q 200.51 580.75 195.50 580.50
  Q 191.71 580.31 189.34 581.99
  A 0.54 0.46 60.8 0 0 189.22 582.61
  Q 189.36 582.92 189.21 583.08
  A 0.79 0.35 37.1 0 1 188.40 582.89
  Q 187.77 582.44 186.96 583.00
  L 183.98 579.55
  A 3.20 2.87 65.9 0 0 181.51 578.45
  Q 172.74 579.01 164.75 578.21
  Q 162.60 577.50 161.25 577.50
  Q 153.29 577.50 132.00 577.96
  Q 92.65 577.58 68.75 578.75
  Q 55.96 579.38 46.50 577.00
  Q 37.83 574.82 31.18 570.92
  Q 24.95 567.27 18.34 560.92
  Q 5.99 549.07 2.21 532.38
  Q 0.06 522.90 1.36 512.52
  Q 3.39 496.18 12.31 482.31
  Q 18.85 472.14 28.24 463.91
  Q 34.68 458.27 42.65 452.47
  Q 50.14 447.03 58.45 442.91
  Q 63.71 440.31 70.44 438.64
  Q 79.47 436.39 83.00 436.25
  Q 91.33 435.93 99.63 435.16
  Q 99.71 435.15 102.86 435.07
  Q 104.58 435.02 106.22 434.48
  Q 106.57 434.36 106.18 434.35
  L 100.43 434.13
  A 0.56 0.52 -88.4 0 1 99.93 433.56
  L 100.59 396.27
  Q 100.63 394.31 102.62 394.30
  L 131.98 394.25
  A 0.82 0.82 2.3 0 1 132.80 395.13
  Q 131.15 416.26 134.79 436.50
  Z
  M 159.29 492.68
  L 159.05 467.50
  A 1.22 1.17 89.5 0 0 157.88 466.30
  L 143.26 466.25
  A 0.51 0.51 0.0 0 0 142.75 466.76
  L 142.93 536.30
  A 0.53 0.51 90.0 0 0 143.44 536.83
  L 158.24 536.98
  A 0.79 0.76 90.0 0 0 159.01 536.18
  Q 158.85 523.28 159.17 511.15
  Q 159.26 507.90 159.81 505.91
  Q 160.62 503.01 162.06 501.06
  Q 165.33 496.66 171.40 497.55
  Q 174.88 498.07 176.19 500.56
  Q 177.49 503.04 177.49 507.25
  Q 177.50 521.37 177.50 536.12
  A 0.88 0.88 0.0 0 0 178.38 537.00
  L 193.22 537.00
  A 0.77 0.77 -89.6 0 0 193.99 536.24
  Q 194.16 519.41 193.78 503.74
  Q 193.75 502.54 193.51 501.27
  Q 193.27 500.05 193.06 498.83
  Q 192.67 496.62 192.11 495.24
  Q 187.91 485.02 176.50 485.00
  Q 166.51 484.99 159.64 492.81
  Q 159.30 493.20 159.29 492.68
  Z
  M 586.4792 466.6558
  A 0.43 0.43 0.0 0 0 586.0484 466.2266
  L 570.6684 466.2534
  A 0.43 0.43 0.0 0 0 570.2392 466.6842
  L 570.2608 479.0842
  A 0.43 0.43 0.0 0 0 570.6916 479.5134
  L 586.0716 479.4866
  A 0.43 0.43 0.0 0 0 586.5008 479.0558
  L 586.4792 466.6558
  Z
  M 91.15 485.08
  Q 92.29 482.69 95.28 481.65
  Q 97.67 480.83 100.20 480.72
  Q 111.76 480.24 122.84 485.45
  A 0.63 0.61 12.5 0 0 123.73 484.90
  L 123.59 471.93
  A 0.67 0.65 7.1 0 0 123.09 471.31
  Q 111.76 468.24 100.00 468.03
  Q 98.53 468.01 93.00 468.75
  Q 83.24 470.06 78.49 476.75
  Q 74.02 483.03 74.87 491.47
  Q 75.78 500.56 83.97 505.16
  Q 86.74 506.71 93.81 508.51
  Q 98.88 509.81 103.91 511.20
  Q 107.74 512.26 109.21 513.59
  Q 111.88 515.99 110.98 519.73
  Q 110.43 522.00 108.43 523.46
  Q 106.25 525.06 104.00 525.25
  Q 89.70 526.47 76.46 519.16
  A 0.79 0.76 14.6 0 0 75.29 519.82
  L 75.41 532.81
  A 0.75 0.74 10.0 0 0 75.89 533.49
  Q 89.56 538.84 103.87 538.04
  Q 114.85 537.42 120.36 533.39
  Q 127.99 527.82 128.00 516.00
  Q 128.00 508.07 123.30 503.25
  Q 120.80 500.68 116.04 498.73
  Q 112.04 497.09 107.75 496.26
  Q 101.70 495.11 95.74 493.54
  Q 92.36 492.65 91.13 489.92
  Q 90.02 487.45 91.15 485.08
  Z
  M 399.55 511.46
  Q 405.21 510.37 409.66 512.97
  Q 412.27 514.50 414.64 518.61
  Q 419.62 527.24 423.53 536.35
  A 1.06 1.05 -11.2 0 0 424.51 537.00
  L 441.53 537.00
  A 0.68 0.68 -12.6 0 0 442.15 536.03
  Q 437.15 525.48 431.71 514.89
  Q 428.52 508.67 422.13 505.78
  Q 421.12 505.33 422.14 504.90
  Q 435.29 499.39 433.67 485.26
  Q 432.31 473.44 420.76 470.71
  Q 415.04 469.36 405.75 469.25
  Q 393.96 469.11 382.18 469.42
  A 0.52 0.52 -1.1 0 0 381.68 469.94
  L 381.51 536.16
  A 0.78 0.77 90.0 0 0 382.28 536.94
  L 398.32 537.00
  A 0.69 0.68 -90.0 0 0 399.00 536.31
  L 399.06 512.06
  A 0.61 0.61 -5.8 0 1 399.55 511.46
  Z
  M 239.68 504.42
  Q 226.96 503.92 218.25 505.75
  Q 208.13 507.87 205.91 516.60
  Q 204.15 523.55 207.13 529.54
  Q 210.41 536.12 218.96 537.68
  Q 231.73 539.99 239.49 530.44
  Q 240.25 529.49 240.25 530.71
  L 240.25 536.34
  A 0.66 0.66 0.0 0 0 240.91 537.00
  L 255.90 537.00
  A 0.85 0.85 89.8 0 0 256.75 536.15
  Q 256.75 523.62 256.77 510.75
  Q 256.78 501.55 254.75 496.75
  Q 252.21 490.76 247.44 488.31
  Q 240.98 485.01 232.00 484.94
  Q 221.36 484.86 210.72 487.31
  A 1.21 1.16 -7.1 0 0 209.78 488.46
  L 209.89 498.87
  A 0.69 0.66 -13.2 0 0 210.87 499.45
  Q 222.01 494.25 233.35 496.40
  Q 236.75 497.04 238.27 498.45
  Q 240.45 500.48 240.23 503.94
  A 0.53 0.51 2.8 0 1 239.68 504.42
  Z
  M 294.22 499.96
  Q 300.70 496.37 308.60 499.66
  A 0.64 0.62 11.3 0 0 309.48 499.09
  L 309.34 485.93
  A 0.62 0.58 4.1 0 0 308.82 485.36
  Q 296.04 483.32 288.73 493.53
  Q 288.43 493.95 288.30 493.46
  Q 287.71 491.19 288.14 487.90
  A 1.45 1.44 -86.3 0 0 286.71 486.26
  L 272.43 486.31
  A 0.69 0.68 -90.0 0 0 271.75 487.00
  L 271.75 536.34
  A 0.66 0.66 0.0 0 0 272.41 537.00
  L 287.12 537.00
  A 0.89 0.89 89.7 0 0 288.01 536.10
  Q 287.83 522.37 288.25 509.50
  Q 288.34 506.90 290.15 503.93
  Q 291.73 501.34 294.22 499.96
  Z
  M 331.05 516.06
  L 367.45 516.00
  A 1.10 1.09 -1.5 0 0 368.55 514.85
  Q 368.39 511.97 368.21 509.45
  Q 367.98 506.25 367.45 504.11
  Q 363.36 487.68 345.73 485.41
  Q 334.21 483.93 325.81 488.81
  Q 314.22 495.55 313.86 510.25
  Q 313.46 526.90 325.22 533.89
  Q 332.76 538.37 344.46 538.16
  Q 355.11 537.97 365.52 533.88
  A 0.75 0.74 79.9 0 0 366.00 533.18
  L 366.00 522.45
  Q 366.00 521.15 364.88 521.82
  Q 355.28 527.52 344.06 527.32
  Q 338.39 527.22 335.33 525.16
  Q 331.16 522.35 330.60 516.57
  A 0.46 0.45 87.1 0 1 331.05 516.06
  Z
  M 483.45 530.56
  L 483.50 536.29
  A 0.71 0.69 90.0 0 0 484.19 537.00
  L 499.15 537.00
  A 0.85 0.85 45.0 0 0 500.00 536.15
  Q 500.00 523.50 500.00 510.50
  Q 500.00 502.86 498.50 498.00
  Q 496.60 491.87 491.38 488.70
  Q 487.68 486.44 480.72 485.58
  Q 467.52 483.93 453.77 487.51
  A 1.02 1.01 83.1 0 0 453.00 488.50
  L 453.00 498.93
  A 0.69 0.68 -13.2 0 0 453.99 499.54
  Q 464.38 494.40 475.90 496.20
  Q 479.67 496.79 481.28 498.13
  Q 483.72 500.16 483.50 504.01
  A 0.53 0.53 -87.8 0 1 482.96 504.51
  Q 475.37 504.34 468.25 504.74
  Q 463.44 505.01 459.05 506.63
  Q 454.20 508.42 451.59 511.90
  Q 446.80 518.27 449.54 527.03
  Q 451.92 534.66 458.81 536.94
  Q 473.09 541.65 483.10 530.44
  Q 483.45 530.05 483.45 530.56
  Z
  M 519.70 531.54
  Q 524.21 535.50 530.06 536.95
  Q 543.11 540.19 555.59 535.49
  A 0.77 0.72 -10.2 0 0 556.09 534.82
  L 556.23 523.11
  Q 556.24 522.08 555.38 522.69
  Q 550.07 526.47 543.32 526.69
  Q 531.38 527.09 528.56 515.69
  Q 527.44 511.15 528.84 506.47
  Q 530.26 501.70 533.74 499.14
  Q 536.78 496.91 540.67 496.62
  Q 544.09 496.38 547.81 497.25
  Q 551.52 498.13 554.96 500.45
  Q 556.20 501.29 556.20 499.81
  L 556.25 488.51
  A 0.82 0.80 9.7 0 0 555.70 487.75
  Q 545.55 484.20 535.83 485.32
  Q 524.83 486.58 518.27 493.06
  Q 512.55 498.71 511.58 507.23
  Q 510.78 514.32 512.42 520.20
  Q 514.25 526.75 519.70 531.54
  Z
  M 618.28 492.23
  L 618.25 486.96
  A 0.71 0.69 90.0 0 0 617.56 486.25
  L 602.67 486.25
  A 0.67 0.67 90.0 0 0 602.00 486.92
  L 602.06 536.44
  A 0.51 0.50 90.0 0 0 602.56 536.95
  L 617.41 536.95
  A 0.88 0.86 89.7 0 0 618.27 536.06
  Q 618.08 521.62 618.50 508.75
  Q 618.73 501.90 623.95 498.82
  Q 627.89 496.50 631.84 497.71
  Q 636.81 499.24 636.75 505.75
  Q 636.61 521.03 636.93 536.31
  A 0.53 0.51 89.4 0 0 637.44 536.83
  L 652.26 536.98
  A 1.01 0.98 -89.7 0 0 653.25 535.97
  Q 653.25 521.63 653.27 508.00
  Q 653.29 501.68 652.00 497.00
  Q 650.08 490.02 644.34 487.05
  Q 639.21 484.40 632.86 485.26
  Q 625.36 486.28 619.29 492.62
  Q 618.28 493.67 618.28 492.23
  Z
  M 702.96 529.41
  Q 703.09 532.46 702.48 535.69
  Q 701.80 539.29 700.15 541.43
  Q 697.22 545.23 691.94 545.91
  Q 681.37 547.26 671.90 541.90
  A 0.77 0.76 14.9 0 0 670.75 542.56
  L 670.80 553.44
  A 0.71 0.71 -81.2 0 0 671.28 554.10
  Q 682.60 557.95 694.09 556.75
  Q 705.15 555.59 711.36 550.48
  Q 719.25 543.98 719.25 532.00
  Q 719.25 510.00 719.25 487.02
  A 0.71 0.70 90.0 0 0 718.55 486.31
  L 703.92 486.25
  A 0.95 0.92 -89.7 0 0 703.00 487.19
  L 702.95 492.82
  Q 702.94 493.75 702.34 493.04
  Q 697.74 487.63 691.67 485.89
  Q 685.75 484.19 679.51 486.33
  Q 670.60 489.39 666.94 498.94
  Q 661.41 513.36 668.66 526.28
  Q 670.85 530.19 673.67 532.54
  Q 677.05 535.37 681.00 536.25
  Q 693.57 539.05 702.18 529.14
  Q 702.91 528.29 702.96 529.41
  Z
  M 586.50 486.76
  A 0.51 0.51 0.0 0 0 585.99 486.25
  L 570.75 486.25
  A 0.51 0.51 0.0 0 0 570.24 486.76
  L 570.24 536.48
  A 0.51 0.51 0.0 0 0 570.75 536.99
  L 585.99 536.99
  A 0.51 0.51 0.0 0 0 586.50 536.48
  L 586.50 486.76
  Z"
/>
<path fill="#737b75" fill-opacity="0.988" d="
  M 550.21 401.00
  Q 543.85 400.49 538.00 397.96
  Q 538.07 397.66 538.49 397.78
  Q 544.17 399.44 550.01 400.47
  Q 550.37 400.53 550.21 401.00
  Z"
/>
<path fill="#e5e7d8" fill-opacity="0.988" d="
  M 138.88 413.56
  Q 140.45 414.03 140.37 415.26
  Q 140.25 417.25 140.25 419.25
  Q 140.25 420.61 139.69 419.31
  Q 138.49 416.57 138.56 413.79
  A 0.25 0.24 8.8 0 1 138.88 413.56
  Z"
/>
<path fill="#9c3a10" d="
  M 679.21 415.50
  L 679.46 424.25
  Q 679.11 424.36 679.07 423.99
  Q 678.55 418.47 678.56 416.06
  Q 678.56 415.55 679.21 415.50
  Z"
/>
<path fill="#a8b8b0" fill-opacity="0.976" d="
  M 784.00 432.31
  L 784.00 432.81
  Q 783.09 433.33 782.74 432.79
  A 0.51 0.51 -28.2 0 1 782.97 432.03
  Q 783.47 431.82 784.00 432.31
  Z"
/>
<path fill="#eacfb0" d="
  M 778.79 435.75
  L 777.75 436.21
  Q 776.67 436.60 776.46 435.75
  L 777.62 434.58
  A 0.86 0.64 -51.6 0 1 778.48 434.35
  Q 779.07 434.63 778.79 435.75
  Z"
/>
<path fill="#c5a47f" fill-opacity="0.996" d="
  M 144.04 435.50
  Q 144.98 436.00 147.25 436.00
  Q 181.25 435.97 215.25 436.04
  Q 216.55 436.06 216.00 437.21
  Q 182.71 437.45 149.42 437.03
  Q 147.31 437.01 144.09 436.66
  Q 141.43 436.37 138.75 436.29
  Q 141.88 436.18 142.75 436.25
  Q 143.76 436.33 144.04 435.50
  Z"
/>
<path fill="#c5a47f" fill-opacity="0.996" d="
  M 625.00 435.54
  Q 624.98 436.61 626.25 436.29
  Q 624.75 436.63 623.25 436.94
  Q 621.78 437.25 620.23 437.25
  Q 584.88 437.21 549.53 437.24
  Q 549.45 437.24 533.97 437.43
  Q 522.48 437.58 511.00 436.96
  L 513.00 436.04
  Q 553.47 435.92 593.94 436.10
  Q 609.47 436.17 625.00 435.54
  Z"
/>
<path fill="#bc9469" d="
  M 776.46 435.75
  Q 776.67 436.60 777.75 436.21
  Q 779.03 436.21 778.43 436.44
  Q 778.28 436.49 778.06 436.48
  Q 777.34 436.44 776.84 436.88
  A 1.43 0.74 -51.5 0 1 776.00 437.26
  L 745.75 437.21
  Q 749.53 436.38 745.25 436.04
  L 776.46 435.75
  Z"
/>
<path fill="#fb740f" d="
  M 138.75 436.29
  Q 141.43 436.37 144.09 436.66
  Q 147.31 437.01 149.42 437.03
  Q 182.71 437.45 216.00 437.21
  Q 316.62 437.06 417.24 437.01
  Q 425.67 437.00 437.25 437.08
  Q 474.12 437.32 511.00 436.96
  Q 522.48 437.58 533.97 437.43
  Q 549.45 437.24 549.53 437.24
  Q 584.88 437.21 620.23 437.25
  Q 621.78 437.25 623.25 436.94
  Q 624.75 436.63 626.25 436.29
  L 639.00 436.04
  Q 642.38 436.44 639.50 436.56
  Q 633.91 436.78 628.31 436.81
  A 0.70 0.66 -80.3 0 0 627.67 437.29
  Q 626.74 440.02 623.81 440.29
  Q 623.30 440.33 622.89 440.59
  Q 620.18 442.30 617.02 442.35
  Q 613.62 442.40 613.47 442.41
  Q 607.60 442.89 605.00 442.25
  Q 602.76 441.70 601.13 442.09
  Q 598.90 442.61 598.81 442.62
  Q 590.61 443.44 582.36 443.50
  Q 580.49 443.51 578.33 444.41
  Q 574.85 445.86 571.50 445.75
  Q 566.34 445.58 562.23 445.96
  Q 558.93 446.26 554.87 446.37
  Q 551.17 446.47 547.50 447.25
  Q 546.49 447.47 543.50 446.72
  Q 541.74 446.27 539.56 446.31
  Q 536.48 446.35 533.51 445.55
  Q 530.75 444.82 529.56 444.60
  Q 527.54 444.24 525.55 443.78
  Q 519.85 442.48 514.07 442.77
  Q 505.34 443.21 504.89 443.21
  Q 494.06 443.21 483.25 444.05
  Q 478.26 444.43 473.26 444.06
  Q 464.11 443.37 460.00 443.75
  Q 457.02 444.03 458.50 443.07
  Q 458.91 442.80 458.44 442.73
  Q 457.90 442.65 457.35 442.60
  Q 456.91 442.56 456.30 442.37
  Q 455.07 441.97 453.86 442.30
  Q 452.19 442.75 451.57 442.76
  Q 447.06 442.83 440.56 443.44
  Q 440.04 443.49 439.92 443.24
  A 0.53 0.28 67.1 0 0 439.50 442.90
  Q 435.60 443.67 432.81 443.56
  Q 425.80 443.30 421.15 443.74
  Q 420.95 443.75 420.86 443.68
  Q 420.77 443.60 420.83 443.47
  A 0.10 0.10 -78.8 0 0 420.74 443.33
  Q 410.90 444.26 401.09 443.21
  Q 401.04 443.21 397.45 442.51
  Q 395.65 442.16 393.83 442.36
  Q 391.70 442.60 390.28 442.52
  Q 387.66 442.38 385.06 442.85
  Q 384.62 442.92 384.08 442.79
  Q 382.63 442.43 380.31 442.81
  Q 377.89 443.21 374.74 441.44
  A 1.52 1.09 87.6 0 1 374.17 440.71
  Q 373.60 439.13 371.93 438.96
  Q 371.48 438.91 371.25 438.74
  Q 370.71 438.35 371.02 438.05
  Q 371.27 437.81 370.95 437.81
  Q 357.48 437.71 344.00 437.97
  Q 342.44 438.00 344.01 438.15
  Q 346.75 438.41 349.20 438.49
  A 0.65 0.64 79.5 0 1 349.78 438.89
  Q 350.59 440.82 349.54 441.78
  Q 349.30 442.00 349.60 442.00
  Q 351.76 442.00 349.48 442.68
  Q 345.37 443.91 341.16 444.56
  Q 338.51 444.97 332.69 444.83
  Q 326.32 444.67 321.31 445.81
  Q 313.76 447.54 307.14 446.60
  Q 300.88 445.72 300.81 445.72
  Q 296.61 445.30 292.43 444.68
  Q 287.30 443.91 284.04 443.72
  Q 270.28 442.91 256.50 443.48
  A 1.84 1.56 -59.7 0 0 255.59 443.80
  Q 251.21 446.88 245.88 445.78
  Q 245.72 445.74 245.57 445.73
  Q 237.51 444.91 231.28 444.84
  Q 220.09 444.69 219.85 444.69
  Q 213.87 444.53 207.90 444.82
  Q 199.33 445.23 193.71 445.28
  Q 186.60 445.35 179.51 445.82
  Q 179.42 445.83 174.55 446.56
  Q 170.67 447.14 165.56 446.19
  Q 156.00 444.40 149.69 441.26
  Q 149.64 441.23 147.02 439.42
  Q 145.84 438.60 144.39 438.35
  Q 143.72 438.24 141.63 438.51
  Q 139.29 438.81 136.50 438.25
  Q 134.82 437.91 134.79 436.50
  Q 136.71 435.90 138.75 436.29
  Z"
/>
<path fill="#eacfb0" d="
  M 215.25 436.04
  L 513.00 436.04
  L 511.00 436.96
  Q 474.12 437.32 437.25 437.08
  Q 425.67 437.00 417.24 437.01
  Q 316.62 437.06 216.00 437.21
  Q 216.55 436.06 215.25 436.04
  Z"
/>
<path fill="#d6bb8c" d="
  M 691.50 436.04
  Q 695.59 436.38 699.68 436.25
  Q 707.50 436.00 707.84 435.99
  Q 726.55 435.98 745.25 436.04
  Q 749.53 436.38 745.75 437.21
  Q 719.03 437.41 692.32 436.94
  Q 690.15 436.90 691.50 436.04
  Z"
/>
<path fill="#ffffff" d="
  M 159.64 492.81
  Q 166.51 484.99 176.50 485.00
  Q 187.91 485.02 192.11 495.24
  Q 192.67 496.62 193.06 498.83
  Q 193.27 500.05 193.51 501.27
  Q 193.75 502.54 193.78 503.74
  Q 194.16 519.41 193.99 536.24
  A 0.77 0.77 -89.6 0 1 193.22 537.00
  L 178.38 537.00
  A 0.88 0.88 -45.0 0 1 177.50 536.12
  Q 177.50 521.37 177.49 507.25
  Q 177.49 503.04 176.19 500.56
  Q 174.88 498.07 171.40 497.55
  Q 165.33 496.66 162.06 501.06
  Q 160.62 503.01 159.81 505.91
  Q 159.26 507.90 159.17 511.15
  Q 158.85 523.28 159.01 536.18
  A 0.79 0.76 90.0 0 1 158.24 536.98
  L 143.44 536.83
  A 0.53 0.51 90.0 0 1 142.93 536.30
  L 142.75 466.76
  A 0.51 0.51 -0.0 0 1 143.26 466.25
  L 157.88 466.30
  A 1.22 1.17 89.5 0 1 159.05 467.50
  L 159.29 492.68
  Q 159.30 493.20 159.64 492.81
  Z"
/>
<rect fill="#ffffff" x="-8.12" y="-6.63" transform="translate(578.37,472.87) rotate(-0.1)" width="16.24" height="13.26" rx="0.43"/>
<path fill="#ffffff" d="
  M 91.13 489.92
  Q 92.36 492.65 95.74 493.54
  Q 101.70 495.11 107.75 496.26
  Q 112.04 497.09 116.04 498.73
  Q 120.80 500.68 123.30 503.25
  Q 128.00 508.07 128.00 516.00
  Q 127.99 527.82 120.36 533.39
  Q 114.85 537.42 103.87 538.04
  Q 89.56 538.84 75.89 533.49
  A 0.75 0.74 10.0 0 1 75.41 532.81
  L 75.29 519.82
  A 0.79 0.76 14.6 0 1 76.46 519.16
  Q 89.70 526.47 104.00 525.25
  Q 106.25 525.06 108.43 523.46
  Q 110.43 522.00 110.98 519.73
  Q 111.88 515.99 109.21 513.59
  Q 107.74 512.26 103.91 511.20
  Q 98.88 509.81 93.81 508.51
  Q 86.74 506.71 83.97 505.16
  Q 75.78 500.56 74.87 491.47
  Q 74.02 483.03 78.49 476.75
  Q 83.24 470.06 93.00 468.75
  Q 98.53 468.01 100.00 468.03
  Q 111.76 468.24 123.09 471.31
  A 0.67 0.65 7.1 0 1 123.59 471.93
  L 123.73 484.90
  A 0.63 0.61 12.5 0 1 122.84 485.45
  Q 111.76 480.24 100.20 480.72
  Q 97.67 480.83 95.28 481.65
  Q 92.29 482.69 91.15 485.08
  Q 90.02 487.45 91.13 489.92
  Z"
/>
<path fill="#ffffff" d="
  M 399.06 512.06
  L 399.00 536.31
  A 0.69 0.68 -90.0 0 1 398.32 537.00
  L 382.28 536.94
  A 0.78 0.77 -90.0 0 1 381.51 536.16
  L 381.68 469.94
  A 0.52 0.52 -1.1 0 1 382.18 469.42
  Q 393.96 469.11 405.75 469.25
  Q 415.04 469.36 420.76 470.71
  Q 432.31 473.44 433.67 485.26
  Q 435.29 499.39 422.14 504.90
  Q 421.12 505.33 422.13 505.78
  Q 428.52 508.67 431.71 514.89
  Q 437.15 525.48 442.15 536.03
  A 0.68 0.68 -12.6 0 1 441.53 537.00
  L 424.51 537.00
  A 1.06 1.05 -11.2 0 1 423.53 536.35
  Q 419.62 527.24 414.64 518.61
  Q 412.27 514.50 409.66 512.97
  Q 405.21 510.37 399.55 511.46
  A 0.61 0.61 -5.8 0 0 399.06 512.06
  Z
  M 413.81 483.93
  Q 412.62 482.74 410.95 482.45
  Q 406.16 481.62 399.98 481.77
  A 0.99 0.96 -1.2 0 0 399.02 482.74
  L 399.17 498.55
  A 0.58 0.56 2.8 0 0 399.69 499.11
  Q 404.82 499.55 409.93 498.85
  Q 414.60 498.20 416.06 493.31
  Q 417.69 487.84 413.81 483.93
  Z"
/>
<path fill="#fa6801" d="
  M 413.81 483.93
  Q 417.69 487.84 416.06 493.31
  Q 414.60 498.20 409.93 498.85
  Q 404.82 499.55 399.69 499.11
  A 0.58 0.56 2.8 0 1 399.17 498.55
  L 399.02 482.74
  A 0.99 0.96 -1.2 0 1 399.98 481.77
  Q 406.16 481.62 410.95 482.45
  Q 412.62 482.74 413.81 483.93
  Z"
/>
<path fill="#ffffff" d="
  M 240.23 503.94
  Q 240.45 500.48 238.27 498.45
  Q 236.75 497.04 233.35 496.40
  Q 222.01 494.25 210.87 499.45
  A 0.69 0.66 -13.2 0 1 209.89 498.87
  L 209.78 488.46
  A 1.21 1.16 -7.1 0 1 210.72 487.31
  Q 221.36 484.86 232.00 484.94
  Q 240.98 485.01 247.44 488.31
  Q 252.21 490.76 254.75 496.75
  Q 256.78 501.55 256.77 510.75
  Q 256.75 523.62 256.75 536.15
  A 0.85 0.85 -90.0 0 1 255.90 537.00
  L 240.91 537.00
  A 0.66 0.66 0.5 0 1 240.25 536.34
  L 240.25 530.71
  Q 240.25 529.49 239.49 530.44
  Q 231.73 539.99 218.96 537.68
  Q 210.41 536.12 207.13 529.54
  Q 204.15 523.55 205.91 516.60
  Q 208.13 507.87 218.25 505.75
  Q 226.96 503.92 239.68 504.42
  A 0.53 0.51 2.8 0 0 240.23 503.94
  Z
  M 226.08 526.87
  Q 228.23 527.76 229.75 527.50
  Q 240.59 525.67 240.09 514.70
  A 0.57 0.56 -89.5 0 0 239.56 514.15
  Q 236.95 513.97 230.75 514.25
  Q 227.54 514.40 225.20 515.59
  Q 222.52 516.97 221.85 519.74
  Q 221.18 522.54 223.11 524.80
  Q 224.20 526.08 226.08 526.87
  Z"
/>
<path fill="#ffffff" d="
  M 290.15 503.93
  Q 288.34 506.90 288.25 509.50
  Q 287.83 522.37 288.01 536.10
  A 0.89 0.89 89.7 0 1 287.12 537.00
  L 272.41 537.00
  A 0.66 0.66 0.1 0 1 271.75 536.34
  L 271.75 487.00
  A 0.69 0.68 -90.0 0 1 272.43 486.31
  L 286.71 486.26
  A 1.45 1.44 -86.3 0 1 288.14 487.90
  Q 287.71 491.19 288.30 493.46
  Q 288.43 493.95 288.73 493.53
  Q 296.04 483.32 308.82 485.36
  A 0.62 0.58 4.1 0 1 309.34 485.93
  L 309.48 499.09
  A 0.64 0.62 11.3 0 1 308.60 499.66
  Q 300.70 496.37 294.22 499.96
  Q 291.73 501.34 290.15 503.93
  Z"
/>
<path fill="#ffffff" d="
  M 330.60 516.57
  Q 331.16 522.35 335.33 525.16
  Q 338.39 527.22 344.06 527.32
  Q 355.28 527.52 364.88 521.82
  Q 366.00 521.15 366.00 522.45
  L 366.00 533.18
  A 0.75 0.74 79.9 0 1 365.52 533.88
  Q 355.11 537.97 344.46 538.16
  Q 332.76 538.37 325.22 533.89
  Q 313.46 526.90 313.86 510.25
  Q 314.22 495.55 325.81 488.81
  Q 334.21 483.93 345.73 485.41
  Q 363.36 487.68 367.45 504.11
  Q 367.98 506.25 368.21 509.45
  Q 368.39 511.97 368.55 514.85
  A 1.10 1.09 -1.5 0 1 367.45 516.00
  L 331.05 516.06
  A 0.46 0.45 87.1 0 0 330.60 516.57
  Z
  M 347.53 497.73
  Q 344.14 495.35 340.01 496.08
  Q 332.48 497.42 330.87 505.25
  A 0.63 0.63 5.6 0 0 331.49 506.00
  L 350.69 506.00
  A 0.65 0.65 88.0 0 0 351.34 505.30
  Q 350.91 500.09 347.53 497.73
  Z"
/>
<path fill="#ffffff" d="
  M 483.10 530.44
  Q 473.09 541.65 458.81 536.94
  Q 451.92 534.66 449.54 527.03
  Q 446.80 518.27 451.59 511.90
  Q 454.20 508.42 459.05 506.63
  Q 463.44 505.01 468.25 504.74
  Q 475.37 504.34 482.96 504.51
  A 0.53 0.53 -87.8 0 0 483.50 504.01
  Q 483.72 500.16 481.28 498.13
  Q 479.67 496.79 475.90 496.20
  Q 464.38 494.40 453.99 499.54
  A 0.69 0.68 -13.2 0 1 453.00 498.93
  L 453.00 488.50
  A 1.02 1.01 83.1 0 1 453.77 487.51
  Q 467.52 483.93 480.72 485.58
  Q 487.68 486.44 491.38 488.70
  Q 496.60 491.87 498.50 498.00
  Q 500.00 502.86 500.00 510.50
  Q 500.00 523.50 500.00 536.15
  A 0.85 0.85 45.0 0 1 499.15 537.00
  L 484.19 537.00
  A 0.71 0.69 90.0 0 1 483.50 536.29
  L 483.45 530.56
  Q 483.45 530.05 483.10 530.44
  Z
  M 467.54 525.99
  Q 473.97 529.28 479.30 524.78
  Q 483.68 521.08 483.49 514.84
  A 0.83 0.83 0.1 0 0 482.69 514.04
  Q 476.30 513.79 470.97 514.86
  Q 463.05 516.46 465.71 523.90
  A 3.76 3.75 -86.3 0 0 467.54 525.99
  Z"
/>
<path fill="#ffffff" d="
  M 519.70 531.54
  Q 514.25 526.75 512.42 520.20
  Q 510.78 514.32 511.58 507.23
  Q 512.55 498.71 518.27 493.06
  Q 524.83 486.58 535.83 485.32
  Q 545.55 484.20 555.70 487.75
  A 0.82 0.80 9.7 0 1 556.25 488.51
  L 556.20 499.81
  Q 556.20 501.29 554.96 500.45
  Q 551.52 498.13 547.81 497.25
  Q 544.09 496.38 540.67 496.62
  Q 536.78 496.91 533.74 499.14
  Q 530.26 501.70 528.84 506.47
  Q 527.44 511.15 528.56 515.69
  Q 531.38 527.09 543.32 526.69
  Q 550.07 526.47 555.38 522.69
  Q 556.24 522.08 556.23 523.11
  L 556.09 534.82
  A 0.77 0.72 -10.2 0 1 555.59 535.49
  Q 543.11 540.19 530.06 536.95
  Q 524.21 535.50 519.70 531.54
  Z"
/>
<path fill="#ffffff" d="
  M 618.28 492.23
  Q 618.28 493.67 619.29 492.62
  Q 625.36 486.28 632.86 485.26
  Q 639.21 484.40 644.34 487.05
  Q 650.08 490.02 652.00 497.00
  Q 653.29 501.68 653.27 508.00
  Q 653.25 521.63 653.25 535.97
  A 1.01 0.98 -89.7 0 1 652.26 536.98
  L 637.44 536.83
  A 0.53 0.51 89.4 0 1 636.93 536.31
  Q 636.61 521.03 636.75 505.75
  Q 636.81 499.24 631.84 497.71
  Q 627.89 496.50 623.95 498.82
  Q 618.73 501.90 618.50 508.75
  Q 618.08 521.62 618.27 536.06
  A 0.88 0.86 89.7 0 1 617.41 536.95
  L 602.56 536.95
  A 0.51 0.50 90.0 0 1 602.06 536.44
  L 602.00 486.92
  A 0.67 0.67 89.9 0 1 602.67 486.25
  L 617.56 486.25
  A 0.71 0.69 90.0 0 1 618.25 486.96
  L 618.28 492.23
  Z"
/>
<path fill="#ffffff" d="
  M 702.96 529.41
  Q 702.91 528.29 702.18 529.14
  Q 693.57 539.05 681.00 536.25
  Q 677.05 535.37 673.67 532.54
  Q 670.85 530.19 668.66 526.28
  Q 661.41 513.36 666.94 498.94
  Q 670.60 489.39 679.51 486.33
  Q 685.75 484.19 691.67 485.89
  Q 697.74 487.63 702.34 493.04
  Q 702.94 493.75 702.95 492.82
  L 703.00 487.19
  A 0.95 0.92 -89.7 0 1 703.92 486.25
  L 718.55 486.31
  A 0.71 0.70 90.0 0 1 719.25 487.02
  Q 719.25 510.00 719.25 532.00
  Q 719.25 543.98 711.36 550.48
  Q 705.15 555.59 694.09 556.75
  Q 682.60 557.95 671.28 554.10
  A 0.71 0.71 -81.2 0 1 670.80 553.44
  L 670.75 542.56
  A 0.77 0.76 14.9 0 1 671.90 541.90
  Q 681.37 547.26 691.94 545.91
  Q 697.22 545.23 700.15 541.43
  Q 701.80 539.29 702.48 535.69
  Q 703.09 532.46 702.96 529.41
  Z
  M 686.24 523.33
  Q 687.19 524.23 688.47 524.54
  Q 699.80 527.29 702.24 515.80
  Q 703.42 510.24 702.01 504.75
  Q 700.94 500.58 697.77 498.48
  Q 694.78 496.49 690.91 496.91
  Q 684.94 497.56 682.72 504.12
  Q 681.54 507.61 681.75 514.00
  Q 681.92 519.28 686.24 523.33
  Z"
/>
<rect fill="#ffffff" x="570.24" y="486.25" width="16.26" height="50.74" rx="0.51"/>
<path fill="#fa6801" d="
  M 347.53 497.73
  Q 350.91 500.09 351.34 505.30
  A 0.65 0.65 88.0 0 1 350.69 506.00
  L 331.49 506.00
  A 0.63 0.63 5.6 0 1 330.87 505.25
  Q 332.48 497.42 340.01 496.08
  Q 344.14 495.35 347.53 497.73
  Z"
/>
<path fill="#fa6801" d="
  M 686.24 523.33
  Q 681.92 519.28 681.75 514.00
  Q 681.54 507.61 682.72 504.12
  Q 684.94 497.56 690.91 496.91
  Q 694.78 496.49 697.77 498.48
  Q 700.94 500.58 702.01 504.75
  Q 703.42 510.24 702.24 515.80
  Q 699.80 527.29 688.47 524.54
  Q 687.19 524.23 686.24 523.33
  Z"
/>
<path fill="#fa6801" d="
  M 223.11 524.80
  Q 221.18 522.54 221.85 519.74
  Q 222.52 516.97 225.20 515.59
  Q 227.54 514.40 230.75 514.25
  Q 236.95 513.97 239.56 514.15
  A 0.57 0.56 -89.5 0 1 240.09 514.70
  Q 240.59 525.67 229.75 527.50
  Q 228.23 527.76 226.08 526.87
  Q 224.20 526.08 223.11 524.80
  Z"
/>
<path fill="#fa6801" d="
  M 467.54 525.99
  A 3.76 3.75 -86.3 0 1 465.71 523.90
  Q 463.05 516.46 470.97 514.86
  Q 476.30 513.79 482.69 514.04
  A 0.83 0.83 -3.7 0 1 483.49 514.84
  Q 483.68 521.08 479.30 524.78
  Q 473.97 529.28 467.54 525.99
  Z"
/>
<path fill="#a8b8b0" fill-opacity="0.976" d="
  M 758.99 546.96
  Q 759.28 546.12 759.45 546.75
  A 0.77 0.60 -44.6 0 1 759.39 547.23
  Q 757.80 550.50 758.99 546.96
  Z"
/>
<ellipse fill="#a8b8b0" fill-opacity="0.976" cx="0.00" cy="0.00" transform="translate(1.05,549.89) rotate(92.7)" rx="1.96" ry="0.52"/>
<path fill="#323334" d="
  M 3.93 556.29
  Q 2.98 556.18 3.89 555.68
  A 0.91 0.69 -41.6 0 1 4.65 555.62
  Q 4.99 555.79 4.63 556.09
  A 0.95 0.81 24.5 0 1 3.93 556.29
  Z"
/>
<path fill="#9c3a10" d="
  M 686.00 577.96
  L 631.00 578.46
  Q 632.40 577.88 636.50 577.75
  Q 660.87 576.96 685.25 577.21
  Q 686.30 577.22 686.00 577.96
  Z"
/>
<path fill="#9c3a10" d="
  M 315.00 577.54
  L 296.00 577.96
  L 258.50 578.46
  Q 258.90 577.92 259.48 577.59
  Q 259.95 577.31 260.71 577.32
  Q 287.85 577.52 315.00 577.54
  Z"
/>
<path fill="#9c3a10" d="
  M 164.75 578.21
  L 132.00 577.96
  Q 153.29 577.50 161.25 577.50
  Q 162.60 577.50 164.75 578.21
  Z"
/>
<path fill="#5b1c06" d="
  M 315.00 577.54
  Q 320.87 577.47 326.75 577.50
  Q 327.79 577.51 328.25 577.96
  L 296.00 577.96
  L 315.00 577.54
  Z"
/>
<path fill="#9c3a10" d="
  M 360.25 577.96
  L 355.25 577.96
  Q 357.72 577.01 360.25 577.96
  Z"
/>
<path fill="#fbf8ee" fill-opacity="0.996" d="
  M 296.00 577.96
  L 328.25 577.96
  L 355.25 577.96
  L 360.25 577.96
  Q 367.52 578.26 374.80 578.17
  Q 388.11 578.00 388.20 578.00
  Q 448.35 578.00 508.50 578.07
  Q 519.79 578.08 564.25 579.50
  Q 566.00 579.56 566.46 580.00
  Q 564.50 581.25 555.06 587.81
  Q 537.17 600.26 515.34 610.47
  Q 513.33 611.41 505.50 614.75
  Q 494.49 619.45 481.39 623.33
  Q 470.75 626.48 462.10 628.62
  Q 447.83 632.15 433.17 633.75
  Q 433.09 633.76 428.35 634.43
  Q 424.79 634.93 418.50 635.25
  Q 394.27 636.48 378.25 635.50
  Q 372.55 635.15 365.54 634.08
  Q 365.44 634.07 355.44 632.64
  Q 344.62 631.10 331.25 627.25
  Q 308.45 620.68 289.63 612.39
  Q 281.55 608.84 271.80 603.39
  Q 252.48 592.61 234.00 580.42
  Q 233.94 580.38 233.47 580.16
  Q 233.06 579.98 232.96 579.50
  Q 233.01 579.26 233.25 579.26
  Q 245.88 579.09 258.50 578.46
  L 296.00 577.96
  Z
  M 331.37 624.80
  Q 331.21 626.69 333.28 626.15
  A 1.38 0.74 -26.3 0 1 334.21 626.18
  L 338.17 628.39
  Q 338.69 628.69 339.07 628.68
  Q 342.12 628.65 342.81 628.94
  Q 345.84 630.17 349.07 630.63
  Q 349.17 630.65 350.91 630.61
  Q 352.04 630.58 352.96 631.35
  A 1.63 1.13 59.0 0 0 353.80 631.73
  Q 356.03 631.90 358.24 631.61
  Q 360.33 631.33 362.22 631.78
  Q 364.22 632.25 366.26 632.45
  Q 366.72 632.50 367.15 632.80
  Q 368.74 633.93 370.63 634.04
  Q 373.28 634.21 373.35 634.22
  Q 380.39 635.27 387.50 634.75
  Q 390.55 634.53 404.75 635.00
  Q 406.94 635.07 410.32 634.55
  Q 413.12 634.11 415.85 634.20
  Q 420.88 634.35 425.88 633.89
  Q 428.11 633.68 432.49 632.46
  Q 435.77 631.55 439.18 631.17
  Q 439.84 631.09 442.69 630.30
  Q 444.52 629.79 446.45 630.30
  A 1.30 1.17 -51.0 0 0 447.35 630.16
  Q 448.56 629.48 451.00 629.25
  Q 452.15 629.14 457.67 627.27
  Q 459.27 626.73 459.85 627.16
  A 2.43 2.43 -36.8 0 0 462.15 627.49
  Q 467.74 625.43 472.58 623.75
  Q 474.15 623.20 477.05 623.05
  Q 479.65 622.91 482.10 621.90
  Q 484.97 620.70 488.04 619.99
  A 0.80 0.80 69.0 0 0 488.56 618.82
  Q 488.18 618.14 489.00 618.18
  A 1.65 1.61 31.2 0 0 489.91 617.97
  Q 490.88 617.44 492.50 617.50
  Q 495.26 617.60 497.57 615.53
  A 1.53 1.44 -66.9 0 1 498.44 615.15
  Q 503.98 614.71 507.90 610.85
  A 0.95 0.89 27.6 0 1 508.73 610.62
  Q 510.59 611.02 512.30 610.23
  Q 512.72 610.04 513.25 610.08
  Q 514.38 610.18 514.87 609.27
  A 1.03 0.88 -76.6 0 1 515.57 608.76
  Q 517.52 608.51 519.20 607.52
  Q 519.33 607.45 520.92 606.75
  Q 522.83 605.90 523.57 602.55
  A 1.33 1.31 -86.3 0 1 524.73 601.52
  Q 525.88 601.42 527.24 600.68
  Q 528.43 600.02 529.59 600.72
  A 0.97 0.81 43.9 0 0 530.44 600.78
  Q 534.00 598.95 537.16 596.52
  Q 540.32 594.09 542.91 592.82
  Q 546.71 590.95 550.44 588.94
  Q 552.65 587.74 553.19 586.06
  A 1.34 0.79 -84.8 0 1 553.74 585.30
  L 557.79 583.19
  A 1.69 0.73 17.3 0 1 558.73 583.09
  Q 559.79 583.22 560.45 582.59
  A 0.86 0.48 68.4 0 0 560.55 581.84
  Q 560.46 581.51 560.77 581.36
  Q 561.48 581.02 561.58 580.87
  Q 562.24 579.95 560.25 580.28
  Q 555.40 581.08 550.50 580.73
  Q 544.01 580.27 537.50 580.25
  Q 442.75 579.86 348.00 580.07
  Q 342.41 580.09 336.82 579.83
  Q 330.81 579.55 325.66 579.72
  Q 315.45 580.05 305.24 579.95
  Q 290.34 579.81 285.24 579.85
  Q 268.20 580.01 251.16 580.06
  Q 250.65 580.06 246.03 580.62
  Q 243.13 580.98 240.25 580.00
  Q 237.92 579.20 237.19 580.44
  Q 236.57 581.48 237.56 581.83
  Q 242.20 583.44 246.50 585.82
  A 1.12 0.95 -84.3 0 1 247.01 586.56
  Q 247.37 588.36 248.95 588.83
  Q 251.33 589.54 251.43 589.60
  Q 254.11 590.98 256.69 592.56
  Q 257.80 593.25 258.75 593.50
  Q 261.60 594.26 263.44 596.56
  Q 264.83 598.31 269.53 599.85
  Q 269.92 599.98 270.49 599.88
  Q 271.22 599.75 271.86 599.98
  A 1.74 0.77 64.6 0 1 272.59 600.61
  Q 273.58 601.94 275.32 601.96
  A 0.62 0.60 -6.5 0 1 275.92 602.42
  Q 276.67 605.29 279.23 606.64
  Q 279.71 606.90 280.84 606.97
  Q 281.87 607.04 282.44 607.66
  A 1.17 1.16 50.0 0 0 284.00 607.80
  Q 285.36 606.77 286.37 608.59
  A 0.43 0.43 -36.5 0 0 287.04 608.69
  Q 289.25 606.64 289.25 609.05
  A 1.95 1.77 15.4 0 0 290.28 610.67
  L 297.33 614.47
  A 1.66 0.55 35.7 0 0 298.25 614.76
  L 300.18 614.63
  A 0.74 0.71 -14.5 0 1 300.88 615.02
  Q 301.54 616.30 302.69 615.39
  A 0.88 0.74 34.5 0 1 303.49 615.31
  L 309.46 617.70
  A 0.84 0.72 9.0 0 1 309.97 618.30
  Q 310.06 619.02 310.45 619.61
  A 1.24 0.95 -7.6 0 0 311.25 620.07
  Q 315.27 620.68 319.03 622.16
  Q 321.02 622.94 323.10 623.38
  Q 325.19 623.83 327.22 624.52
  A 0.42 0.41 -75.9 0 0 327.76 624.19
  Q 328.11 622.30 328.83 623.83
  Q 329.51 625.29 330.99 624.56
  Q 331.40 624.36 331.37 624.80
  Z"
/>
<path fill="#e65a00" d="
  M 232.96 579.50
  Q 233.06 579.98 233.47 580.16
  Q 233.94 580.38 234.00 580.42
  Q 252.48 592.61 271.80 603.39
  Q 281.55 608.84 289.63 612.39
  Q 308.45 620.68 331.25 627.25
  Q 344.62 631.10 355.44 632.64
  Q 365.44 634.07 365.54 634.08
  Q 372.55 635.15 378.25 635.50
  Q 394.27 636.48 418.50 635.25
  Q 424.79 634.93 428.35 634.43
  Q 433.09 633.76 433.17 633.75
  Q 447.83 632.15 462.10 628.62
  Q 470.75 626.48 481.39 623.33
  Q 494.49 619.45 505.50 614.75
  Q 513.33 611.41 515.34 610.47
  Q 537.17 600.26 555.06 587.81
  Q 564.50 581.25 566.46 580.00
  Q 569.09 581.74 571.44 580.81
  Q 576.26 578.90 580.00 579.22
  Q 585.29 579.67 590.60 579.55
  Q 590.65 579.55 593.89 579.32
  Q 598.68 578.97 603.02 580.98
  Q 603.15 581.04 606.09 582.25
  Q 608.21 583.12 609.74 584.93
  A 1.08 0.33 6.3 0 0 610.41 585.22
  Q 610.64 585.27 610.79 585.50
  Q 608.87 588.07 606.51 590.26
  Q 582.76 612.36 554.71 628.38
  Q 543.11 635.01 537.17 637.98
  Q 528.98 642.08 518.44 646.19
  Q 479.55 661.33 440.93 666.57
  Q 427.90 668.33 421.09 669.08
  Q 410.00 670.30 400.75 670.00
  Q 379.94 669.33 359.23 667.15
  Q 347.00 665.85 328.25 661.25
  Q 317.49 658.61 309.80 656.28
  Q 302.78 654.15 291.74 650.09
  Q 271.77 642.74 252.97 632.74
  Q 249.30 630.79 242.90 626.73
  Q 239.60 624.63 236.22 622.65
  Q 232.39 620.40 229.63 618.41
  Q 215.57 608.29 203.44 598.31
  Q 195.21 591.55 186.96 583.00
  Q 187.77 582.44 188.40 582.89
  A 0.79 0.35 37.1 0 0 189.21 583.08
  Q 189.36 582.92 189.22 582.61
  A 0.54 0.46 60.8 0 1 189.34 581.99
  Q 191.71 580.31 195.50 580.50
  Q 200.51 580.75 205.50 581.25
  Q 207.44 581.45 209.18 580.84
  Q 211.54 580.01 212.62 579.92
  Q 216.97 579.54 218.00 579.25
  Q 221.23 578.32 223.25 579.00
  Q 226.49 580.09 232.96 579.50
  Z"
/>
<path fill="#eacfb0" d="
  M 254.44 583.76
  Q 254.60 583.70 254.78 583.77
  A 0.46 0.38 -75.6 0 1 255.01 584.26
  Q 254.72 585.84 254.22 584.54
  A 0.64 0.46 70.1 0 1 254.44 583.76
  Z"
/>
<path fill="#323334" d="
  M 703.54 585.25
  L 703.50 585.04
  Q 709.41 584.72 703.54 585.25
  Z"
/>
<path fill="#a8b8b0" fill-opacity="0.976" d="
  M 703.50 585.04
  L 703.54 585.25
  Q 702.96 586.05 702.05 586.01
  A 0.37 0.37 -74.6 0 1 701.74 585.46
  Q 702.20 584.64 703.50 585.04
  Z"
/>
<ellipse fill="#fbf8ee" fill-opacity="0.996" cx="0.00" cy="0.00" transform="translate(618.60,587.91) rotate(-4.7)" rx="1.77" ry="1.13"/>
<path fill="#e5e7d8" fill-opacity="0.988" d="
  M 612.18 588.38
  Q 612.00 587.81 613.01 587.75
  A 1.46 1.06 -60.8 0 0 613.83 587.37
  Q 614.33 586.90 614.73 587.33
  A 0.59 0.53 -42.8 0 1 614.66 588.12
  Q 613.93 588.81 612.94 588.84
  A 0.82 0.67 -8.2 0 1 612.18 588.38
  Z"
/>
<circle fill="#e5e7d8" fill-opacity="0.988" cx="623.05" cy="588.11" r="0.96"/>
<path fill="#737b75" fill-opacity="0.988" d="
  M 180.38 587.47
  Q 181.05 587.22 181.30 587.70
  A 0.46 0.41 -19.4 0 1 180.96 588.31
  Q 180.01 588.53 179.88 588.17
  A 0.71 0.48 -20.5 0 1 180.38 587.47
  Z"
/>
<path fill="#737b75" fill-opacity="0.988" d="
  M 193.20 595.76
  Q 193.76 596.67 193.38 596.58
  A 0.78 0.49 78.3 0 1 192.93 596.11
  Q 192.01 593.79 193.20 595.76
  Z"
/>
<ellipse fill="#b0a37c" cx="0.00" cy="0.00" transform="translate(493.77,614.39) rotate(-1.6)" rx="1.21" ry="0.40"/>
<ellipse fill="#737b75" fill-opacity="0.988" cx="0.00" cy="0.00" transform="translate(462.38,623.50) rotate(-1.3)" rx="1.25" ry="0.28"/>
<path fill="#737b75" fill-opacity="0.988" d="
  M 417.50 629.79
  L 417.50 630.46
  Q 414.51 630.07 417.50 629.79
  Z"
/>
<path fill="#323334" d="
  M 417.50 629.79
  Q 418.37 629.72 419.25 629.73
  Q 420.55 629.75 419.41 630.19
  Q 419.26 630.25 419.08 630.23
  Q 418.26 630.16 417.50 630.46
  L 417.50 629.79
  Z"
/>
<ellipse fill="#737b75" fill-opacity="0.988" cx="0.00" cy="0.00" transform="translate(526.64,652.22) rotate(22.9)" rx="0.97" ry="0.35"/>
<ellipse fill="#e5e7d8" fill-opacity="0.988" cx="0.00" cy="0.00" transform="translate(305.54,661.59) rotate(30.3)" rx="0.85" ry="0.60"/>
</svg>
